<?xml version="1.0" encoding="utf-8"?>
<!-- Generator: Adobe Illustrator 23.0.6, SVG Export Plug-In . SVG Version: 6.00 Build 0)  -->
<svg version="1.1" id="Layer_1" xmlns="http://www.w3.org/2000/svg" xmlns:xlink="http://www.w3.org/1999/xlink" x="0px" y="0px"
	 viewBox="0 0 300 300" style="enable-background:new 0 0 300 300;" xml:space="preserve">
<style type="text/css">
	.st0{fill:#D1D3D4;}
	.st1{display:none;}
	.st2{display:inline;}
	.st3{fill:#FBC09D;}
	.st4{fill:#3E2F47;}
	.st5{fill:#B098C8;}
	.st6{fill:#7462AB;}
	.st7{opacity:0.3;}
	.st8{fill:#F8A589;}
	.st9{fill:#F48885;}
	.st10{fill:#F9A25C;}
	.st11{fill:#FFFFFF;}
	.st12{fill:#A23F4D;}
	.st13{fill:#FFD994;}
	.st14{fill:#BE4F5B;}
	.st15{fill:#D56D67;}
	.st16{fill:#F8A58F;}
	.st17{fill:#F37376;}
	.st18{fill:#FDC06A;}
	.st19{fill:#0096AA;}
</style>
<rect class="st0" width="299.83" height="299.83"/>
<g class="st1">
	<g class="st2">
		<path class="st3" d="M166.7,200.37c-4.35,5.98-10.04,9.3-15.95,9.3h-0.83h-0.83c-5.9,0-11.59-3.32-15.95-9.3l-1.16-1.59v15.79
			l-4.32,1.71l1.78,2.55c4.67,6.69,12.32,10.68,20.48,10.68c8.16,0,15.81-3.99,20.48-10.68l1.78-2.55l-4.32-1.71v-15.79
			L166.7,200.37z"/>
		<path class="st4" d="M149.08,209.67h0.83h0.83c5.9,0,11.59-3.32,15.95-9.3l1.16-1.59v-20.94h-17.94h-17.94v20.94l1.16,1.59
			C137.49,206.35,143.18,209.67,149.08,209.67z"/>
	</g>
	<g class="st2">
		<path class="st5" d="M248.69,270.74c-4.09-16.75-16.04-30.48-32.07-36.84l-44.44-17.62l-1.78,2.55
			c-4.67,6.69-12.32,10.68-20.48,10.68c-8.16,0-15.81-3.99-20.48-10.68l-1.78-2.55l-44.44,17.62
			c-16.03,6.36-27.98,20.09-32.07,36.84l-6.93,28.39h105.7h105.7L248.69,270.74z"/>
		<g>
			<path class="st6" d="M51.15,270.74l-0.94,3.83h199.41l-0.94-3.83c-0.71-2.92-1.68-5.73-2.85-8.45H53.99
				C52.82,265.01,51.86,267.83,51.15,270.74z"/>
			<polygon class="st6" points="44.21,299.13 149.92,299.13 255.62,299.13 252.62,286.86 47.21,286.86 			"/>
			<path class="st6" d="M172.18,216.28l-1.78,2.55c-1.86,2.67-4.2,4.9-6.85,6.63h31.78L172.18,216.28z"/>
			<path class="st6" d="M129.44,218.84l-1.78-2.55l-23.14,9.18h31.78C133.64,223.73,131.3,221.5,129.44,218.84z"/>
			<path class="st6" d="M61.4,250.02h177.03c-3.92-4.87-8.68-9.03-14.1-12.28H75.5C70.08,240.99,65.32,245.15,61.4,250.02z"/>
		</g>
		<g class="st7">
			<g>
				<path class="st4" d="M174.01,224.88c-3.17,2.68-7.09,5.25-11.6,7.05c-4.49,1.81-9.56,2.86-14.6,2.76
					c-5.04-0.11-10.06-1.37-14.47-3.37c-4.43-1.99-8.24-4.71-11.29-7.53c2.01,3.62,5.39,7.37,9.9,10.14
					c4.48,2.79,10.07,4.58,15.79,4.7c5.72,0.12,11.38-1.44,15.97-4.04C168.33,232.02,171.86,228.42,174.01,224.88z"/>
			</g>
			<g>
				<path class="st4" d="M85.78,296.99c1.51-7.19,1.85-16.92,0.47-26.46c-1.34-9.55-4.38-18.8-7.84-25.28
					c1.25,7.25,3.07,16.47,4.37,25.78C84.13,280.31,84.96,289.68,85.78,296.99z"/>
			</g>
			<g>
				<path class="st4" d="M214.06,296.99c-1.51-7.19-1.85-16.92-0.47-26.46c1.34-9.55,4.38-18.8,7.84-25.28
					c-1.25,7.25-3.07,16.47-4.37,25.78C215.7,280.31,214.88,289.68,214.06,296.99z"/>
			</g>
			<g>
				<path class="st4" d="M198.99,274.79c-7.36,2.21-16.11,3.55-25.41,3.25c-9.29-0.26-19.07-2.08-28.4-5.26
					c-9.34-3.2-18.23-7.68-26.24-12.52c-8.02-4.84-15.2-10.01-21.37-14.59c5.38,5.48,12.06,11.42,19.9,16.86
					c7.83,5.44,16.86,10.35,26.55,13.66c9.68,3.31,19.96,4.9,29.58,4.56C183.21,280.45,192.07,278.12,198.99,274.79z"/>
			</g>
			<g>
				<path class="st4" d="M192.95,256.79c-5.95,3.11-13.73,6.6-21.95,8.71c-8.21,2.17-16.7,2.92-23.41,3.11
					c3.22,0.94,7.1,1.55,11.27,1.59c4.17,0.05,8.63-0.49,12.94-1.61c4.31-1.13,8.46-2.84,12.08-4.91
					C187.51,261.61,190.6,259.18,192.95,256.79z"/>
			</g>
		</g>
	</g>
	<g class="st2">
		<g>
			
				<ellipse transform="matrix(0.2298 -0.9732 0.9732 0.2298 -72.2381 221.5457)" class="st8" cx="103.85" cy="156.41" rx="13.13" ry="13.13"/>
			<path class="st9" d="M111.27,156.41c0,4.1-3.32,7.42-7.42,7.42c-4.1,0-7.42-3.32-7.42-7.42c0-4.1,3.32-7.42,7.42-7.42
				C107.95,148.99,111.27,152.31,111.27,156.41z"/>
		</g>
		<g>
			
				<ellipse transform="matrix(0.7071 -0.7071 0.7071 0.7071 -53.197 184.3937)" class="st8" cx="195.98" cy="156.41" rx="13.13" ry="13.13"/>
			<path class="st9" d="M188.56,156.41c0,4.1,3.32,7.42,7.42,7.42c4.1,0,7.42-3.32,7.42-7.42c0-4.1-3.32-7.42-7.42-7.42
				C191.88,148.99,188.56,152.31,188.56,156.41z"/>
		</g>
		<path class="st3" d="M149.92,89.33L149.92,89.33L149.92,89.33c-22.1,0-40.01,17.91-40.01,40.01v23.39
			c0,14.84,6.23,29.01,17.17,39.04l1.67,1.53c5.49,5.03,12.67,7.83,20.12,7.83h1.05h1.05c7.45,0,14.63-2.79,20.12-7.83l1.67-1.53
			c10.94-10.03,17.17-24.19,17.17-39.04v-23.39C189.93,107.24,172.01,89.33,149.92,89.33z"/>
		<path class="st10" d="M173.39,105.64c4.05-3.32,8.19,6.02,10.62,12.55c0.77,2.08,1.28,4.25,1.53,6.45l3.95,34.82l4.41-25.82
			c1.27-10.63-0.52-23.61-3.85-33.79c-0.99-3.03-2.24-6.09-4.46-8.37c-2.93-2.55-9.68-3.41-9.68-3.41c2.19-1.37,4.37-2.49,6.57-3.86
			c-5.87-5.12-14.43-7.91-22.16-7c2.56-2.99,5.94-5.27,9.66-6.54c-9.24-2.39-19.52-1.56-28.05,2.71c1.03-2.51,2.27-4.89,3.3-7.39
			c-10.73,3.16-19.07,12.11-22.31,22.82c-3.04-0.98-6.46,0.39-8.68,2.67c-2.23,2.28-3.47,5.34-4.46,8.37
			c-3.33,10.18-5.12,23.16-3.85,33.79l4.41,25.82l3.92-34.56c0.29-2.59,0.95-5.12,1.95-7.53c1.47-3.53,3.4-7.42,5.64-10.54
			c1.74-2.42,5.15-2.9,7.56-1.13c6.06,4.45,13.13,8.74,20.18,8.64C158.2,114.22,166.74,111.1,173.39,105.64z"/>
		<circle class="st4" cx="132.04" cy="143.28" r="3.63"/>
		<circle class="st4" cx="167.8" cy="143.28" r="3.63"/>
		<path class="st8" d="M156.54,161.46c-4.13,0.03-8.26,0.05-12.39,0.08c0.74,1.04,1.29,2.41,2.25,3.25
			c0.95,0.85,2.15,1.48,3.42,1.54c1.31,0.06,2.58-0.51,3.62-1.31C154.48,164.22,155.71,162.49,156.54,161.46z"/>
		<path class="st11" d="M164.03,170.23c-9.2,2.31-18.88,2.67-28.22,1.04c0.94,4.15,4.02,8.03,7.88,9.84
			c3.85,1.81,8.53,1.73,12.32-0.2C159.8,178.98,163.22,174.41,164.03,170.23z"/>
		<g>
			<path class="st12" d="M130.4,127.42c-4.38,0.46-7.98,3.07-9.88,6.6c6.93-1.06,13.91-1.79,20.91-2.18
				C138.84,128.77,134.78,126.96,130.4,127.42z"/>
		</g>
		<g>
			<path class="st12" d="M169.44,127.42c4.38,0.46,7.98,3.07,9.88,6.6c-6.93-1.06-13.91-1.79-20.91-2.18
				C160.99,128.77,165.05,126.96,169.44,127.42z"/>
		</g>
		<path class="st8" d="M155.5,188.04c-1.38-1.41-3.33-2.26-5.3-2.32c-1.98-0.06-3.97,0.67-5.43,1.99
			C148.16,187.84,152.11,187.92,155.5,188.04z"/>
		<g>
			<path class="st8" d="M139.26,148.13c-4.13-1.2-10.72-0.42-14.45,1.71C129.01,150.69,135.37,149.93,139.26,148.13z"/>
		</g>
		<g>
			<path class="st8" d="M160.57,148.13c4.13-1.2,10.72-0.42,14.45,1.71C170.82,150.69,164.46,149.93,160.57,148.13z"/>
		</g>
		<g>
			<path class="st13" d="M143.37,101.32c-1.42-3.77-1.44-8.12-0.17-12.15c1.26-4.04,3.74-7.63,6.83-10.33
				c3.08-2.72,6.64-4.58,9.94-5.85c-3.52,0.17-7.69,1.29-11.48,3.84c-3.79,2.5-7.05,6.58-8.51,11.33c-0.73,2.37-1.06,4.87-0.87,7.32
				c0.05,0.74,0.16,1.47,0.31,2.19c-0.59-1.09-1.16-2.21-1.63-3.37c-1.33-3.24-2.3-6.65-2.33-9.89c-0.05-3.23,0.9-6.31,2.6-8.58
				c-2.34,1.61-4.21,4.81-4.61,8.46c-0.44,3.67,0.41,7.54,1.86,11.04c1.46,3.53,3.69,6.71,6.23,9.2c1.3,1.29,2.7,2.38,4.1,3.28
				c1.47,1.14,3.06,1.96,4.59,2.4C147.31,108.23,144.74,105.12,143.37,101.32z"/>
			<path class="st13" d="M154.85,85.38c-2.25,1.53-4.28,3.78-5.54,6.45c-1.26,2.67-1.72,5.66-1.47,8.37
				c0.24,2.72,1.19,5.14,2.39,6.91c-0.59-2.06-0.97-4.45-0.87-6.95c0.1-2.5,0.67-5.1,1.78-7.46c1.11-2.35,2.76-4.45,4.63-6.11
				c1.87-1.67,3.95-2.9,5.92-3.75C159.58,83.03,157.1,83.83,154.85,85.38z"/>
		</g>
	</g>
</g>
<g>
	<g>
		<path class="st14" d="M214.1,166.13c-2.74-8.05-7.13-15.56-8.86-23.89c-1.46-7.03-0.95-14.3-1.41-21.46
			c-0.46-7.16-2.11-14.66-7-19.91c-4.9-5.25-15.97-8.23-21.49-3.65l-34.88,2.41l0.88,8.05c12.68,1.45,24.62,4.99,32.18,14.34
			c13.57,16.78,23.69,36.99,25.34,58.5c1.36,17.75-3.68,36.36-14.9,49.96h15.07C215.5,214.11,221.58,188.11,214.1,166.13z"/>
		<g>
			<path class="st15" d="M197.25,132.02c0.12-2.46-0.02-5.34-0.69-8.35c-0.66-3-1.88-6.15-3.77-8.92c-1.9-2.78-4.5-5.06-7.31-6.48
				c-2.81-1.43-5.82-1.91-8.27-1.59c2.43,0.47,5.01,1.49,7.38,3.11c2.38,1.61,4.55,3.79,6.26,6.28
				C194.31,121.12,195.95,127.28,197.25,132.02z"/>
		</g>
		<g>
			<path class="st15" d="M195.21,224.47c4.56-5.31,8.88-13.77,10.72-22.88c1.92-9.1,1.31-18.58-0.78-25.26
				c-0.13,7-0.66,15.89-2.49,24.58C200.9,209.62,197.87,217.99,195.21,224.47z"/>
		</g>
		<g>
			<path class="st15" d="M206.09,214.01c-0.15,0.19-0.3,0.39-0.48,0.61l0.2,0.11c2.52-3.6,4.74-8.97,5.52-14.57
				c0.84-5.6,0.24-11.3-1.12-15.35c0.02,4.28-0.11,9.69-0.94,15.04c-0.79,5.36-2.29,10.61-3.66,14.78l0.2,0.11
				C205.91,214.47,206,214.24,206.09,214.01z"/>
		</g>
	</g>
	<path class="st12" d="M198.86,180.53c-1.65-21.52-11.77-41.73-25.34-58.5c-7.57-9.35-19.51-12.89-32.18-14.34l13.47,122.8h29.15
		C195.18,216.89,200.23,198.28,198.86,180.53z"/>
	<path class="st12" d="M117.44,121c-4.33,6.24-8.67,12.48-13,18.71c-4.14,5.96-8.3,11.96-11.48,18.48
		c-8.95,18.38-17.94,44.18,10.58,69.57h45.12V118.7L117.44,121z"/>
	<g>
		<path class="st16" d="M166.95,202.19c-4.31,5.92-9.94,9.2-15.78,9.2h-0.83h-0.83c-5.84,0-11.47-3.28-15.78-9.2l-1.14-1.57v15.62
			l-4.28,1.7l1.76,2.52c4.62,6.62,12.19,10.57,20.26,10.57s15.64-3.95,20.26-10.57l1.76-2.52l-4.28-1.7v-15.62L166.95,202.19z"/>
		<path class="st4" d="M149.52,211.39h0.83h0.83c5.84,0,11.47-3.28,15.78-9.2l1.14-1.57V179.9h-17.75h-17.75v20.72l1.14,1.57
			C138.05,208.11,143.68,211.39,149.52,211.39z"/>
	</g>
	<g>
		<g>
			
				<ellipse transform="matrix(0.9247 -0.3806 0.3806 0.9247 -52.5141 51.8143)" class="st9" cx="104.76" cy="158.69" rx="12.99" ry="12.99"/>
			<path class="st17" d="M112.1,158.69c0,4.06-3.29,7.35-7.35,7.35s-7.35-3.29-7.35-7.35c0-4.06,3.29-7.35,7.35-7.35
				S112.1,154.64,112.1,158.69z"/>
		</g>
		<g>
			
				<ellipse transform="matrix(0.7071 -0.7071 0.7071 0.7071 -54.8272 185.0215)" class="st9" cx="195.93" cy="158.69" rx="12.99" ry="12.99"/>
			<path class="st17" d="M188.58,158.69c0,4.06,3.29,7.35,7.35,7.35s7.35-3.29,7.35-7.35c0-4.06-3.29-7.35-7.35-7.35
				S188.58,154.64,188.58,158.69z"/>
		</g>
		<path class="st16" d="M150.34,109.17L150.34,109.17L150.34,109.17c-21.87,0-39.59,0.87-39.59,22.74v23.14
			c0,14.69,6.16,28.7,16.99,38.63l1.65,1.51c5.43,4.98,12.54,7.74,19.91,7.74h1.04h1.04c7.37,0,14.47-2.76,19.91-7.74l1.65-1.51
			c10.83-9.93,16.99-23.94,16.99-38.63v-23.14C189.94,110.04,172.21,109.17,150.34,109.17z"/>
		<circle class="st4" cx="132.65" cy="145.7" r="3.59"/>
		<circle class="st4" cx="168.04" cy="145.7" r="3.59"/>
		<path class="st9" d="M156.46,164.29c-4.34-0.87-8.86-0.79-13.17,0.22c1.12,2.44,3.63,4.48,6.32,4.48
			C152.3,168.99,155.34,166.74,156.46,164.29z"/>
		<g>
			<path class="st14" d="M168.05,130.48c-4.02,0.03-7.56,1.99-9.79,4.97l19.67-0.17C175.64,132.34,172.07,130.45,168.05,130.48z"/>
		</g>
		<g>
			<path class="st14" d="M132.61,130.48c-4.02,0.03-7.56,1.99-9.79,4.97l19.67-0.17C140.2,132.34,136.63,130.45,132.61,130.48z"/>
		</g>
		<path class="st11" d="M160.63,174.33c-7.08,3.2-15.3,3.77-22.76,1.59c2.8,3.37,7.24,5.96,11.61,5.57S158.45,178.13,160.63,174.33z
			"/>
	</g>
	<g>
		<path class="st18" d="M248.08,271.82c-4.05-16.57-15.88-30.16-31.74-36.45l-43.97-17.44l-1.76,2.52
			c-4.62,6.62-12.19,10.57-20.26,10.57s-15.64-3.95-20.26-10.57l-1.76-2.52l-43.97,17.44c-15.86,6.29-27.69,19.87-31.74,36.45
			l-6.86,28.09h104.59h104.59L248.08,271.82z"/>
		<g>
			<path class="st19" d="M114.04,223.6l35.84,56.41v19.91H84.19L87,270.11c0.39-4.17,0.11-8.37-0.83-12.45l-4.84-20.97L114.04,223.6
				z"/>
			<path class="st19" d="M185.9,223.3l-36.03,56.71v19.91h65.68l-2.81-29.81c-0.39-4.17-0.11-8.37,0.83-12.45l4.84-21.4L185.9,223.3
				z"/>
		</g>
		<g class="st7">
			<g>
				<path class="st4" d="M172.29,224.71c-2.5,2.91-5.81,5.7-9.79,7.72c-3.96,2.03-8.57,3.27-13.17,3.25
					c-4.61-0.03-9.2-1.32-13.14-3.39c-3.96-2.06-7.23-4.89-9.71-7.82c1.42,3.55,4.24,7.34,8.28,10.16c4,2.83,9.2,4.68,14.55,4.71
					c5.35,0.03,10.57-1.77,14.6-4.56C167.98,232.01,170.83,228.25,172.29,224.71z"/>
			</g>
			<g>
				<path class="st4" d="M172.36,260.76c-4.7-0.18-10.01-0.47-15.59-1.15c-5.58-0.67-11.43-1.73-17.18-3.2
					c-5.74-1.48-11.37-3.38-16.59-5.48c-5.22-2.1-10.01-4.4-14.22-6.51c3.32,3.31,7.67,6.67,12.76,9.53
					c5.08,2.87,10.9,5.23,16.93,6.79c6.03,1.55,12.27,2.28,18.1,2.22C162.42,262.9,167.85,262.05,172.36,260.76z"/>
			</g>
			<g>
				<path class="st4" d="M206.84,252.03c-5.85,3.9-12.45,8.63-19.68,13.27c-7.23,4.64-15.15,9.14-23.58,12.37
					c-8.39,3.2-17.35,4.95-25.82,4.88c-8.47-0.02-16.37-2.02-22.67-5.18c5.71,4.1,13.73,7.08,22.57,7.65
					c8.83,0.63,18.32-0.92,27.1-4.28c8.77-3.36,16.79-8.27,23.8-13.42C195.58,262.17,201.67,256.79,206.84,252.03z"/>
			</g>
			<g>
				<g>
					<path class="st4" d="M85.42,280.91c0.97-4.69,0.5-10.78-1.17-16.51c-1.66-5.74-4.49-11.09-7.7-14.63
						c0.11,4.78,1.27,10.48,2.88,16.03C81.04,271.35,83.08,276.74,85.42,280.91z"/>
				</g>
				<g>
					<path class="st4" d="M85.42,280.91c-1.83-3.06-4.59-6.35-7.54-9.45c-2.96-3.09-6.12-6-9.09-7.97
						c0.95,3.43,3.29,7.33,6.38,10.55C78.25,277.28,82.04,279.8,85.42,280.91z"/>
				</g>
			</g>
			<g>
				<g>
					<path class="st4" d="M215.26,280.91c2.34-4.17,4.38-9.56,6-15.11c1.61-5.54,2.77-11.24,2.88-16.03
						c-3.22,3.53-6.04,8.89-7.7,14.63C214.76,270.13,214.29,276.22,215.26,280.91z"/>
				</g>
				<g>
					<path class="st4" d="M215.26,280.91c3.38-1.11,7.17-3.63,10.24-6.86c3.09-3.22,5.44-7.12,6.38-10.55
						c-2.97,1.97-6.13,4.88-9.09,7.97C219.85,274.56,217.09,277.85,215.26,280.91z"/>
				</g>
			</g>
		</g>
	</g>
	<g>
		<path class="st14" d="M175.33,97.47c-1.18-7.89-6.95-14.64-14.07-18.08c-7.12-3.44-15.39-3.87-23.16-2.46
			c-19.99,3.64-37.15,19.98-41.94,39.95c-3.13,13.03-1.4,27.17-6.46,39.57c-3.78,9.26-11.09,16.8-14.28,26.29
			c-3.12,9.26-1.84,19.93,3.38,28.17c5.22,8.24,15.12,15.85,24.74,16.86c-10.97-11.03-14.38-28.42-11.65-43.82
			c2.73-15.4,4.38-35.49,18.86-41.06c13.79-5.3,33.99-21.23,39.59-33.33L175.33,97.47z"/>
		<g>
			<path class="st15" d="M98.72,126.96c5.07,0.68,11.27,0.05,17.32-2.42c3.02-1.23,6.02-2.87,8.76-4.98
				c2.75-2.07,5.26-4.68,7.37-7.28c2.14-2.6,4.08-5.18,6.21-7.31c2.11-2.14,4.48-3.8,7.08-4.57c2.62-0.79,5.48-0.75,8.09-0.08
				c2.63,0.65,4.99,1.99,6.88,3.72c-1.25-2.22-3.35-4.36-6.12-5.71c-2.75-1.37-6.14-2.05-9.64-1.49c-3.54,0.55-6.8,2.46-9.42,4.8
				c-2.64,2.34-4.78,5.03-6.86,7.55c-2.07,2.55-4.12,4.8-6.47,6.83c-2.32,2.03-4.87,3.76-7.47,5.24
				C109.25,124.2,103.75,126.01,98.72,126.96z"/>
		</g>
		<g>
			<path class="st15" d="M127.39,95.54c2.45-1.35,5.28-2.77,8.41-3.82c3.12-1.05,6.55-1.71,9.95-1.61c3.37,0.11,6.73,1.04,9.58,2.57
				c2.86,1.52,5.17,3.67,6.76,5.97c-0.78-2.68-2.76-5.58-5.69-7.66c-2.91-2.1-6.69-3.42-10.56-3.54c-3.85-0.12-7.64,0.88-10.79,2.43
				C131.87,91.42,129.29,93.49,127.39,95.54z"/>
		</g>
		<g>
			<path class="st15" d="M93.86,221.27c-1.95-2.99-3.92-6.51-5.48-10.44c-1.57-3.92-2.74-8.24-3.35-12.65
				c-0.59-4.41-0.62-8.88-0.16-13.08c0.45-4.2,1.4-8.11,2.49-11.52c-2.09,2.89-3.94,6.71-4.99,11.08c-1.07,4.36-1.34,9.23-0.7,13.98
				c0.65,4.75,2.22,9.37,4.41,13.29C88.27,215.86,91.08,219.05,93.86,221.27z"/>
		</g>
	</g>
</g>
</svg>
