<?xml version="1.0" encoding="utf-8"?>
<!-- Generator: Adobe Illustrator 23.0.6, SVG Export Plug-In . SVG Version: 6.00 Build 0)  -->
<svg version="1.1" id="Layer_1" xmlns="http://www.w3.org/2000/svg" xmlns:xlink="http://www.w3.org/1999/xlink" x="0px" y="0px"
	 viewBox="0 0 300 300" style="enable-background:new 0 0 300 300;" xml:space="preserve">
<style type="text/css">
	.st0{fill:#262262;}
	.st1{fill:#FBC09D;}
	.st2{fill:#3E2F47;}
	.st3{fill:#B098C8;}
	.st4{fill:#7462AB;}
	.st5{opacity:0.3;}
	.st6{fill:#F8A589;}
	.st7{fill:#F48885;}
	.st8{fill:#F9A25C;}
	.st9{fill:#FFFFFF;}
	.st10{fill:#A23F4D;}
	.st11{fill:#FFD994;}
</style>
<rect class="st0" width="299.83" height="299.83"/>
<g>
	<g>
		<path class="st1" d="M166.7,200.37c-4.35,5.98-10.04,9.3-15.95,9.3h-0.83h-0.83c-5.9,0-11.59-3.32-15.95-9.3l-1.16-1.59v15.79
			l-4.32,1.71l1.78,2.55c4.67,6.69,12.32,10.68,20.48,10.68c8.16,0,15.81-3.99,20.48-10.68l1.78-2.55l-4.32-1.71v-15.79
			L166.7,200.37z"/>
		<path class="st2" d="M149.08,209.67h0.83h0.83c5.9,0,11.59-3.32,15.95-9.3l1.16-1.59v-20.94h-17.94h-17.94v20.94l1.16,1.59
			C137.49,206.35,143.18,209.67,149.08,209.67z"/>
	</g>
	<g>
		<path class="st3" d="M248.69,270.74c-4.09-16.75-16.04-30.48-32.07-36.84l-44.44-17.62l-1.78,2.55
			c-4.67,6.69-12.32,10.68-20.48,10.68c-8.16,0-15.81-3.99-20.48-10.68l-1.78-2.55l-44.44,17.62
			c-16.03,6.36-27.98,20.09-32.07,36.84l-6.93,28.39h105.7h105.7L248.69,270.74z"/>
		<g>
			<path class="st4" d="M51.15,270.74l-0.94,3.83h199.41l-0.94-3.83c-0.71-2.92-1.68-5.73-2.85-8.45H53.99
				C52.82,265.01,51.86,267.83,51.15,270.74z"/>
			<polygon class="st4" points="44.21,299.13 149.92,299.13 255.62,299.13 252.62,286.86 47.21,286.86 			"/>
			<path class="st4" d="M172.18,216.28l-1.78,2.55c-1.86,2.67-4.2,4.9-6.85,6.63h31.78L172.18,216.28z"/>
			<path class="st4" d="M129.44,218.84l-1.78-2.55l-23.14,9.18h31.78C133.64,223.73,131.3,221.5,129.44,218.84z"/>
			<path class="st4" d="M61.4,250.02h177.03c-3.92-4.87-8.68-9.03-14.1-12.28H75.5C70.08,240.99,65.32,245.15,61.4,250.02z"/>
		</g>
		<g class="st5">
			<g>
				<path class="st2" d="M174.01,224.88c-3.17,2.68-7.09,5.25-11.6,7.05c-4.49,1.81-9.56,2.86-14.6,2.76
					c-5.04-0.11-10.06-1.37-14.47-3.37c-4.43-1.99-8.24-4.71-11.29-7.53c2.01,3.62,5.39,7.37,9.9,10.14
					c4.48,2.79,10.07,4.58,15.79,4.7c5.72,0.12,11.38-1.44,15.97-4.04C168.33,232.02,171.86,228.42,174.01,224.88z"/>
			</g>
			<g>
				<path class="st2" d="M85.78,296.99c1.51-7.19,1.85-16.92,0.47-26.46c-1.34-9.55-4.38-18.8-7.84-25.28
					c1.25,7.25,3.07,16.47,4.37,25.78C84.13,280.31,84.96,289.68,85.78,296.99z"/>
			</g>
			<g>
				<path class="st2" d="M214.06,296.99c-1.51-7.19-1.85-16.92-0.47-26.46c1.34-9.55,4.38-18.8,7.84-25.28
					c-1.25,7.25-3.07,16.47-4.37,25.78C215.7,280.31,214.88,289.68,214.06,296.99z"/>
			</g>
			<g>
				<path class="st2" d="M198.99,274.79c-7.36,2.21-16.11,3.55-25.41,3.25c-9.29-0.26-19.07-2.08-28.4-5.26
					c-9.34-3.2-18.23-7.68-26.24-12.52c-8.02-4.84-15.2-10.01-21.37-14.59c5.38,5.48,12.06,11.42,19.9,16.86
					c7.83,5.44,16.86,10.35,26.55,13.66c9.68,3.31,19.96,4.9,29.58,4.56C183.21,280.45,192.07,278.12,198.99,274.79z"/>
			</g>
			<g>
				<path class="st2" d="M192.95,256.79c-5.95,3.11-13.73,6.6-21.95,8.71c-8.21,2.17-16.7,2.92-23.41,3.11
					c3.22,0.94,7.1,1.55,11.27,1.59c4.17,0.05,8.63-0.49,12.94-1.61c4.31-1.13,8.46-2.84,12.08-4.91
					C187.51,261.61,190.6,259.18,192.95,256.79z"/>
			</g>
		</g>
	</g>
	<g>
		<g>
			
				<ellipse transform="matrix(0.2298 -0.9732 0.9732 0.2298 -72.2381 221.5457)" class="st6" cx="103.85" cy="156.41" rx="13.13" ry="13.13"/>
			<path class="st7" d="M111.27,156.41c0,4.1-3.32,7.42-7.42,7.42c-4.1,0-7.42-3.32-7.42-7.42c0-4.1,3.32-7.42,7.42-7.42
				C107.95,148.99,111.27,152.31,111.27,156.41z"/>
		</g>
		<g>
			
				<ellipse transform="matrix(0.7071 -0.7071 0.7071 0.7071 -53.197 184.3937)" class="st6" cx="195.98" cy="156.41" rx="13.13" ry="13.13"/>
			<path class="st7" d="M188.56,156.41c0,4.1,3.32,7.42,7.42,7.42c4.1,0,7.42-3.32,7.42-7.42c0-4.1-3.32-7.42-7.42-7.42
				C191.88,148.99,188.56,152.31,188.56,156.41z"/>
		</g>
		<path class="st1" d="M149.92,89.33L149.92,89.33L149.92,89.33c-22.1,0-40.01,17.91-40.01,40.01v23.39
			c0,14.84,6.23,29.01,17.17,39.04l1.67,1.53c5.49,5.03,12.67,7.83,20.12,7.83h1.05h1.05c7.45,0,14.63-2.79,20.12-7.83l1.67-1.53
			c10.94-10.03,17.17-24.19,17.17-39.04v-23.39C189.93,107.24,172.01,89.33,149.92,89.33z"/>
		<path class="st8" d="M173.39,105.64c4.05-3.32,8.19,6.02,10.62,12.55c0.77,2.08,1.28,4.25,1.53,6.45l3.95,34.82l4.41-25.82
			c1.27-10.63-0.52-23.61-3.85-33.79c-0.99-3.03-2.24-6.09-4.46-8.37c-2.93-2.55-9.68-3.41-9.68-3.41c2.19-1.37,4.37-2.49,6.57-3.86
			c-5.87-5.12-14.43-7.91-22.16-7c2.56-2.99,5.94-5.27,9.66-6.54c-9.24-2.39-19.52-1.56-28.05,2.71c1.03-2.51,2.27-4.89,3.3-7.39
			c-10.73,3.16-19.07,12.11-22.31,22.82c-3.04-0.98-6.46,0.39-8.68,2.67c-2.23,2.28-3.47,5.34-4.46,8.37
			c-3.33,10.18-5.12,23.16-3.85,33.79l4.41,25.82l3.92-34.56c0.29-2.59,0.95-5.12,1.95-7.53c1.47-3.53,3.4-7.42,5.64-10.54
			c1.74-2.42,5.15-2.9,7.56-1.13c6.06,4.45,13.13,8.74,20.18,8.64C158.2,114.22,166.74,111.1,173.39,105.64z"/>
		<circle class="st2" cx="132.04" cy="143.28" r="3.63"/>
		<circle class="st2" cx="167.8" cy="143.28" r="3.63"/>
		<path class="st6" d="M156.54,161.46c-4.13,0.03-8.26,0.05-12.39,0.08c0.74,1.04,1.29,2.41,2.25,3.25
			c0.95,0.85,2.15,1.48,3.42,1.54c1.31,0.06,2.58-0.51,3.62-1.31C154.48,164.22,155.71,162.49,156.54,161.46z"/>
		<path class="st9" d="M164.03,170.23c-9.2,2.31-18.88,2.67-28.22,1.04c0.94,4.15,4.02,8.03,7.88,9.84
			c3.85,1.81,8.53,1.73,12.32-0.2C159.8,178.98,163.22,174.41,164.03,170.23z"/>
		<g>
			<path class="st10" d="M130.4,127.42c-4.38,0.46-7.98,3.07-9.88,6.6c6.93-1.06,13.91-1.79,20.91-2.18
				C138.84,128.77,134.78,126.96,130.4,127.42z"/>
		</g>
		<g>
			<path class="st10" d="M169.44,127.42c4.38,0.46,7.98,3.07,9.88,6.6c-6.93-1.06-13.91-1.79-20.91-2.18
				C160.99,128.77,165.05,126.96,169.44,127.42z"/>
		</g>
		<path class="st6" d="M155.5,188.04c-1.38-1.41-3.33-2.26-5.3-2.32c-1.98-0.06-3.97,0.67-5.43,1.99
			C148.16,187.84,152.11,187.92,155.5,188.04z"/>
		<g>
			<path class="st6" d="M139.26,148.13c-4.13-1.2-10.72-0.42-14.45,1.71C129.01,150.69,135.37,149.93,139.26,148.13z"/>
		</g>
		<g>
			<path class="st6" d="M160.57,148.13c4.13-1.2,10.72-0.42,14.45,1.71C170.82,150.69,164.46,149.93,160.57,148.13z"/>
		</g>
		<g>
			<path class="st11" d="M143.37,101.32c-1.42-3.77-1.44-8.12-0.17-12.15c1.26-4.04,3.74-7.63,6.83-10.33
				c3.08-2.72,6.64-4.58,9.94-5.85c-3.52,0.17-7.69,1.29-11.48,3.84c-3.79,2.5-7.05,6.58-8.51,11.33c-0.73,2.37-1.06,4.87-0.87,7.32
				c0.05,0.74,0.16,1.47,0.31,2.19c-0.59-1.09-1.16-2.21-1.63-3.37c-1.33-3.24-2.3-6.65-2.33-9.89c-0.05-3.23,0.9-6.31,2.6-8.58
				c-2.34,1.61-4.21,4.81-4.61,8.46c-0.44,3.67,0.41,7.54,1.86,11.04c1.46,3.53,3.69,6.71,6.23,9.2c1.3,1.29,2.7,2.38,4.1,3.28
				c1.47,1.14,3.06,1.96,4.59,2.4C147.31,108.23,144.74,105.12,143.37,101.32z"/>
			<path class="st11" d="M154.85,85.38c-2.25,1.53-4.28,3.78-5.54,6.45c-1.26,2.67-1.72,5.66-1.47,8.37
				c0.24,2.72,1.19,5.14,2.39,6.91c-0.59-2.06-0.97-4.45-0.87-6.95c0.1-2.5,0.67-5.1,1.78-7.46c1.11-2.35,2.76-4.45,4.63-6.11
				c1.87-1.67,3.95-2.9,5.92-3.75C159.58,83.03,157.1,83.83,154.85,85.38z"/>
		</g>
	</g>
</g>
</svg>
