<?xml version="1.0" encoding="utf-8"?>
<!-- Generator: Adobe Illustrator 23.0.6, SVG Export Plug-In . SVG Version: 6.00 Build 0)  -->
<svg version="1.1" id="Layer_1" xmlns="http://www.w3.org/2000/svg" xmlns:xlink="http://www.w3.org/1999/xlink" x="0px" y="0px"
	 viewBox="0 0 600 800" style="enable-background:new 0 0 600 800;" xml:space="preserve">
<style type="text/css">
	.st0{fill:#D1D3D4;}
	.st1{display:none;}
	.st2{display:inline;}
	.st3{fill:#FBC09D;}
	.st4{fill:#3E2F47;}
	.st5{fill:#B098C8;}
	.st6{fill:#7462AB;}
	.st7{opacity:0.3;}
	.st8{fill:#F8A589;}
	.st9{fill:#F48885;}
	.st10{fill:#F9A25C;}
	.st11{fill:#FFFFFF;}
	.st12{fill:#A23F4D;}
	.st13{fill:#FFD994;}
	.st14{fill:#BE4F5B;}
	.st15{fill:#D56D67;}
	.st16{fill:#F8A58F;}
	.st17{fill:#F37376;}
	.st18{fill:#FDC06A;}
	.st19{fill:#0096AA;}
</style>
<rect class="st0" width="600" height="800"/>
<g class="st1">
	<g class="st2">
		<path class="st3" d="M345.64,521.3c-12.28,16.88-28.34,26.24-45,26.24h-2.36h-2.36c-16.66,0-32.72-9.36-45-26.24l-3.26-4.49v44.56
			l-12.2,4.84l5.02,7.2c13.18,18.89,34.76,30.15,57.79,30.15c23.03,0,44.61-11.26,57.79-30.15l5.02-7.2l-12.2-4.84v-44.56
			L345.64,521.3z"/>
		<path class="st4" d="M295.93,547.54h2.36h2.36c16.66,0,32.72-9.36,45-26.24l3.26-4.49v-59.09h-50.62h-50.62v59.09l3.26,4.49
			C263.21,538.18,279.27,547.54,295.93,547.54z"/>
	</g>
	<g class="st2">
		<path class="st5" d="M577,719.89c-11.54-47.27-45.28-86.01-90.51-103.95l-125.4-49.73l-5.02,7.2
			c-13.18,18.89-34.76,30.15-57.79,30.15c-23.03,0-44.61-11.26-57.79-30.15l-5.02-7.2l-125.4,49.73
			c-45.23,17.94-78.96,56.68-90.51,103.95L0,800h298.28h298.28L577,719.89z"/>
		<g>
			<path class="st6" d="M19.56,719.89l-2.64,10.82h562.72L577,719.89c-2.01-8.23-4.73-16.18-8.03-23.83H27.6
				C24.3,703.7,21.57,711.65,19.56,719.89z"/>
			<polygon class="st6" points="0,800 298.28,800 596.57,800 588.11,765.35 8.46,765.35 			"/>
			<path class="st6" d="M361.1,566.21l-5.02,7.2c-5.25,7.53-11.86,13.82-19.34,18.7h89.67L361.1,566.21z"/>
			<path class="st6" d="M240.49,573.41l-5.02-7.2l-65.3,25.9h89.67C252.35,587.23,245.75,580.94,240.49,573.41z"/>
			<path class="st6" d="M48.5,661.4h499.57c-11.05-13.73-24.49-25.49-39.79-34.65h-420C72.99,635.92,59.55,647.67,48.5,661.4z"/>
		</g>
		<g class="st7">
			<g>
				<path class="st4" d="M366.29,590.48c-8.94,7.57-20,14.81-32.73,19.89c-12.68,5.11-26.97,8.07-41.2,7.79
					c-14.23-0.31-28.38-3.86-40.84-9.5c-12.51-5.61-23.25-13.3-31.87-21.24c5.67,10.23,15.2,20.79,27.92,28.61
					c12.64,7.86,28.41,12.93,44.55,13.27c16.14,0.34,32.11-4.07,45.06-11.4C350.23,610.61,360.19,600.46,366.29,590.48z"/>
			</g>
			<g>
				<path class="st4" d="M117.29,793.94c4.27-20.29,5.22-47.75,1.32-74.68c-3.77-26.95-12.35-53.05-22.11-71.34
					c3.53,20.45,8.66,46.47,12.34,72.74C112.64,746.89,114.98,773.32,117.29,793.94z"/>
			</g>
			<g>
				<path class="st4" d="M479.28,793.94c-4.26-20.29-5.22-47.75-1.32-74.68c3.77-26.95,12.35-53.05,22.11-71.34
					c-3.53,20.45-8.66,46.47-12.34,72.74C483.93,746.89,481.59,773.32,479.28,793.94z"/>
			</g>
			<g>
				<path class="st4" d="M436.77,731.31c-20.78,6.23-45.47,10.01-71.7,9.18c-26.21-0.73-53.82-5.86-80.14-14.85
					c-26.36-9.03-51.44-21.66-74.05-35.33c-22.64-13.66-42.88-28.26-60.31-41.17c15.19,15.46,34.02,32.22,56.15,47.58
					c22.08,15.35,47.59,29.2,74.91,38.55c27.32,9.34,56.34,13.83,83.46,12.85C392.24,747.28,417.24,740.71,436.77,731.31z"/>
			</g>
			<g>
				<path class="st4" d="M419.73,680.52c-16.78,8.78-38.74,18.63-61.94,24.57c-23.15,6.13-47.12,8.24-66.06,8.76
					c9.08,2.65,20.03,4.38,31.81,4.49c11.77,0.13,24.35-1.37,36.52-4.53c12.16-3.18,23.87-8,34.09-13.86
					C404.38,694.12,413.09,687.27,419.73,680.52z"/>
			</g>
		</g>
	</g>
	<g class="st2">
		<g>
			
				<ellipse transform="matrix(0.2298 -0.9732 0.9732 0.2298 -257.0062 469.7678)" class="st8" cx="168.29" cy="397.25" rx="37.06" ry="37.06"/>
			<path class="st9" d="M189.23,397.25c0,11.57-9.38,20.95-20.95,20.95s-20.95-9.38-20.95-20.95c0-11.57,9.38-20.95,20.95-20.95
				S189.23,385.69,189.23,397.25z"/>
		</g>
		<g>
			
				<ellipse transform="matrix(0.7071 -0.7071 0.7071 0.7071 -155.4608 419.1939)" class="st8" cx="428.28" cy="397.25" rx="37.06" ry="37.06"/>
			<path class="st9" d="M407.33,397.25c0,11.57,9.38,20.95,20.95,20.95c11.57,0,20.95-9.38,20.95-20.95
				c0-11.57-9.38-20.95-20.95-20.95C416.71,376.31,407.33,385.69,407.33,397.25z"/>
		</g>
		<path class="st3" d="M298.28,207.95L298.28,207.95L298.28,207.95c-62.36,0-112.91,50.55-112.91,112.91v65.99
			c0,41.89,17.58,81.85,48.46,110.16l4.7,4.31c15.5,14.21,35.75,22.09,56.78,22.09h2.97h2.97c21.02,0,41.28-7.88,56.78-22.09
			l4.7-4.31c30.88-28.31,48.46-68.27,48.46-110.16v-65.99C411.19,258.5,360.64,207.95,298.28,207.95z"/>
		<path class="st10" d="M364.51,253.98c11.41-9.38,23.11,16.98,29.97,35.41c2.19,5.87,3.62,11.99,4.33,18.21l11.15,98.25
			l12.45-72.86c3.58-30-1.46-66.63-10.85-95.35c-2.8-8.56-6.31-17.17-12.59-23.62c-8.26-7.2-27.31-9.61-27.31-9.61
			c6.19-3.87,12.34-7.01,18.53-10.89c-16.56-14.45-40.72-22.32-62.55-19.77c7.24-8.42,16.76-14.87,27.27-18.45
			c-26.07-6.75-55.09-4.41-79.16,7.65c2.91-7.07,6.41-13.79,9.32-20.87c-30.28,8.91-53.81,34.18-62.96,64.38
			c-8.57-2.76-18.22,1.1-24.5,7.55c-6.28,6.45-9.79,15.06-12.59,23.62c-9.4,28.71-14.44,65.35-10.85,95.35l12.46,72.86l11.07-97.53
			c0.83-7.31,2.69-14.44,5.51-21.23c4.14-9.96,9.59-20.95,15.92-29.74c4.92-6.83,14.55-8.19,21.33-3.2
			c17.11,12.57,37.05,24.65,56.95,24.38C321.67,278.2,345.75,269.39,364.51,253.98z"/>
		<circle class="st4" cx="247.83" cy="360.2" r="10.24"/>
		<circle class="st4" cx="348.74" cy="360.2" r="10.24"/>
		<path class="st8" d="M316.96,411.51c-11.65,0.07-23.3,0.15-34.95,0.22c2.09,2.93,3.65,6.8,6.34,9.18
			c2.69,2.39,6.06,4.18,9.66,4.33c3.69,0.16,7.29-1.44,10.21-3.71C311.15,419.28,314.65,414.39,316.96,411.51z"/>
		<path class="st11" d="M338.1,436.26c-25.95,6.52-53.27,7.53-79.63,2.94c2.64,11.71,11.36,22.66,22.22,27.76s24.08,4.88,34.78-0.57
			C326.17,460.95,335.84,448.05,338.1,436.26z"/>
		<g>
			<path class="st12" d="M243.2,315.45c-12.36,1.29-22.53,8.65-27.87,18.63c19.55-2.99,39.25-5.04,58.99-6.16
				C267.03,319.26,255.57,314.16,243.2,315.45z"/>
		</g>
		<g>
			<path class="st12" d="M353.36,315.45c12.36,1.29,22.53,8.65,27.87,18.63c-19.55-2.99-39.25-5.04-58.99-6.16
				C329.53,319.26,341,314.16,353.36,315.45z"/>
		</g>
		<path class="st8" d="M314.05,486.52c-3.91-3.98-9.38-6.38-14.96-6.55c-5.58-0.17-11.19,1.89-15.34,5.63
			C293.31,485.95,304.48,486.16,314.05,486.52z"/>
		<g>
			<path class="st8" d="M268.22,373.89c-11.65-3.38-30.25-1.17-40.79,4.84C239.3,381.1,257.24,378.97,268.22,373.89z"/>
		</g>
		<g>
			<path class="st8" d="M328.35,373.89c11.65-3.38,30.25-1.17,40.79,4.84C357.27,381.1,339.32,378.97,328.35,373.89z"/>
		</g>
		<g>
			<path class="st13" d="M279.8,241.8c-4.01-10.64-4.08-22.91-0.48-34.29c3.55-11.41,10.56-21.54,19.28-29.14
				c8.69-7.68,18.74-12.93,28.05-16.5c-9.95,0.47-21.71,3.65-32.39,10.85c-10.7,7.05-19.9,18.56-24.02,31.96
				c-2.05,6.68-2.99,13.75-2.44,20.67c0.14,2.1,0.46,4.16,0.87,6.19c-1.68-3.08-3.26-6.22-4.61-9.5c-3.76-9.13-6.49-18.76-6.57-27.9
				c-0.15-9.12,2.53-17.81,7.32-24.2c-6.61,4.54-11.88,13.56-13.01,23.87c-1.25,10.35,1.17,21.27,5.25,31.16
				c4.13,9.97,10.42,18.94,17.59,25.96c3.68,3.64,7.61,6.71,11.56,9.26c4.16,3.2,8.62,5.53,12.97,6.76
				C290.93,261.31,283.68,252.5,279.8,241.8z"/>
			<path class="st13" d="M312.21,196.81c-6.36,4.31-12.07,10.67-15.63,18.2c-3.56,7.53-4.85,15.98-4.13,23.63
				c0.68,7.68,3.35,14.51,6.76,19.49c-1.67-5.81-2.74-12.55-2.44-19.62c0.27-7.05,1.89-14.41,5.02-21.05
				c3.15-6.64,7.79-12.56,13.07-17.25c5.27-4.72,11.15-8.17,16.7-10.57C325.54,190.17,318.57,192.45,312.21,196.81z"/>
		</g>
	</g>
</g>
<g>
	<g>
		<path class="st14" d="M482.87,417.1c-7.86-23.09-20.45-44.63-25.41-68.52c-4.19-20.16-2.72-41.01-4.05-61.56
			c-1.33-20.55-6.04-42.05-20.09-57.11c-14.05-15.06-45.79-23.61-61.64-10.47l-100.03,6.92l2.53,23.08
			c36.36,4.17,70.61,14.3,92.31,41.14c38.93,48.12,67.95,106.09,72.68,167.8c3.9,50.91-10.57,104.28-42.74,143.29h43.24
			C486.88,554.72,504.33,480.15,482.87,417.1z"/>
		<g>
			<path class="st15" d="M434.53,319.27c0.35-7.06-0.07-15.3-1.98-23.94c-1.9-8.61-5.38-17.65-10.81-25.59
				c-5.45-7.96-12.9-14.53-20.98-18.58c-8.06-4.12-16.71-5.48-23.72-4.57c6.96,1.35,14.36,4.27,21.17,8.93
				c6.82,4.63,13.06,10.87,17.97,18.02C426.11,288,430.82,305.68,434.53,319.27z"/>
		</g>
		<g>
			<path class="st15" d="M428.7,584.44c13.08-15.22,25.47-39.5,30.74-65.63c5.52-26.09,3.75-53.28-2.23-72.44
				c-0.36,20.09-1.89,45.59-7.13,70.51C445.02,541.83,436.33,565.85,428.7,584.44z"/>
		</g>
		<g>
			<path class="st15" d="M459.9,554.44c-0.43,0.55-0.87,1.11-1.37,1.76l0.57,0.3c7.24-10.33,13.59-25.72,15.84-41.79
				c2.4-16.06,0.69-32.41-3.23-44.03c0.07,12.27-0.31,27.78-2.71,43.14c-2.28,15.38-6.57,30.45-10.49,42.39l0.57,0.3
				C459.39,555.76,459.65,555.09,459.9,554.44z"/>
		</g>
	</g>
	<path class="st12" d="M439.17,458.4c-4.73-61.72-33.75-119.68-72.68-167.8c-21.7-26.83-55.95-36.96-92.31-41.14l38.65,352.23h83.6
		C428.6,562.68,443.07,509.31,439.17,458.4z"/>
	<path class="st12" d="M205.61,287.65c-12.43,17.89-24.86,35.78-37.29,53.67c-11.88,17.1-23.82,34.29-32.93,53.02
		c-25.66,52.72-51.45,126.72,30.36,199.54h129.43V281.06L205.61,287.65z"/>
	<g>
		<path class="st16" d="M347.63,520.53c-12.35,16.98-28.5,26.39-45.26,26.39H300h-2.37c-16.76,0-32.9-9.42-45.26-26.39l-3.28-4.51
			v44.82l-12.27,4.86l5.05,7.24c13.25,19,34.96,30.32,58.12,30.32s44.87-11.32,58.12-30.32l5.05-7.24l-12.27-4.86v-44.82
			L347.63,520.53z"/>
		<path class="st4" d="M297.63,546.92H300h2.37c16.76,0,32.9-9.42,45.26-26.39l3.28-4.51v-59.43H300h-50.91v59.43l3.28,4.51
			C264.73,537.5,280.87,546.92,297.63,546.92z"/>
	</g>
	<g>
		<g>
			
				<ellipse transform="matrix(0.9247 -0.3806 0.3806 0.9247 -137.8908 94.203)" class="st9" cx="169.25" cy="395.77" rx="37.27" ry="37.27"/>
			<path class="st17" d="M190.32,395.77c0,11.64-9.43,21.07-21.07,21.07s-21.07-9.43-21.07-21.07c0-11.64,9.43-21.07,21.07-21.07
				S190.32,384.13,190.32,395.77z"/>
		</g>
		<g>
			
				<ellipse transform="matrix(0.7071 -0.7071 0.7071 0.7071 -153.6884 420.5013)" class="st9" cx="430.75" cy="395.77" rx="37.27" ry="37.27"/>
			<path class="st17" d="M409.68,395.77c0,11.64,9.43,21.07,21.07,21.07c11.64,0,21.07-9.43,21.07-21.07
				c0-11.64-9.43-21.07-21.07-21.07C419.11,374.7,409.68,384.13,409.68,395.77z"/>
		</g>
		<path class="st16" d="M300,253.72L300,253.72L300,253.72c-62.72,0-113.56,2.5-113.56,65.22v66.37
			c0,42.13,17.68,82.33,48.74,110.79l4.73,4.33c15.59,14.29,35.96,22.21,57.1,22.21H300h2.99c21.14,0,41.52-7.93,57.1-22.21
			l4.73-4.33c31.06-28.47,48.74-68.66,48.74-110.79v-66.37C413.56,256.22,362.72,253.72,300,253.72z"/>
		<circle class="st4" cx="249.25" cy="358.5" r="10.3"/>
		<circle class="st4" cx="350.75" cy="358.5" r="10.3"/>
		<path class="st9" d="M317.54,411.83c-12.45-2.48-25.42-2.26-37.78,0.64c3.2,7.01,10.43,12.84,18.13,12.84
			C305.6,425.31,314.34,418.84,317.54,411.83z"/>
		<g>
			<path class="st14" d="M350.79,314.84c-11.52,0.1-21.68,5.7-28.08,14.26l56.41-0.48C372.56,320.17,362.31,314.75,350.79,314.84z"
				/>
		</g>
		<g>
			<path class="st14" d="M249.14,314.84c-11.52,0.1-21.68,5.7-28.08,14.26l56.41-0.48C270.9,320.17,260.65,314.75,249.14,314.84z"/>
		</g>
		<path class="st11" d="M329.5,440.61c-20.3,9.17-43.89,10.82-65.27,4.57c8.04,9.66,20.77,17.08,33.3,15.99
			C310.06,460.07,323.26,451.53,329.5,440.61z"/>
	</g>
	<g>
		<path class="st18" d="M580.32,720.26c-11.61-47.54-45.54-86.51-91.03-104.55L363.17,565.7l-5.05,7.24
			c-13.25,19-34.96,30.32-58.12,30.32s-44.87-11.32-58.12-30.32l-5.05-7.24L110.7,615.71c-45.49,18.04-79.42,57.01-91.03,104.55
			L0,800.83h300h300L580.32,720.26z"/>
		<g>
			<path class="st19" d="M195.86,581.94l102.79,161.79v57.1h-188.4l8.07-85.5c1.13-11.96,0.33-24.02-2.38-35.72l-13.89-60.15
				L195.86,581.94z"/>
			<path class="st19" d="M401.99,581.09L298.65,743.73v57.1h188.4l-8.07-85.5c-1.13-11.96-0.33-24.02,2.38-35.72l13.89-61.39
				L401.99,581.09z"/>
		</g>
		<g class="st7">
			<g>
				<path class="st4" d="M362.95,585.13c-7.18,8.33-16.67,16.36-28.08,22.15c-11.36,5.82-24.57,9.38-37.79,9.33
					c-13.22-0.09-26.4-3.79-37.69-9.72c-11.35-5.91-20.75-14.03-27.85-22.44c4.08,10.2,12.16,21.05,23.74,29.13
					c11.48,8.12,26.4,13.41,41.74,13.5c15.34,0.08,30.32-5.07,41.88-13.07C350.57,606.06,358.77,595.28,362.95,585.13z"/>
			</g>
			<g>
				<path class="st4" d="M363.15,688.51c-13.47-0.52-28.71-1.35-44.73-3.31c-16.01-1.93-32.78-4.97-49.26-9.18
					c-16.47-4.26-32.63-9.69-47.58-15.72c-14.97-6.01-28.72-12.63-40.78-18.68c9.53,9.5,22,19.13,36.61,27.33
					c14.58,8.23,31.26,15.01,48.56,19.47c17.31,4.43,35.19,6.54,51.93,6.37C334.65,694.66,350.22,692.24,363.15,688.51z"/>
			</g>
			<g>
				<path class="st4" d="M462.05,663.47c-16.79,11.19-35.71,24.74-56.45,38.06c-20.73,13.3-43.46,26.23-67.62,35.49
					c-24.07,9.19-49.77,14.2-74.05,14.01c-24.31-0.05-46.96-5.81-65.02-14.84c16.39,11.76,39.39,20.31,64.74,21.95
					c25.32,1.82,52.55-2.64,77.72-12.26c25.15-9.65,48.16-23.71,68.26-38.49C429.75,692.58,447.22,677.14,462.05,663.47z"/>
			</g>
			<g>
				<g>
					<path class="st4" d="M113.79,746.31c2.79-13.44,1.44-30.92-3.37-47.35c-4.76-16.45-12.87-31.82-22.09-41.95
						c0.31,13.72,3.65,30.07,8.25,45.97C101.23,718.88,107.07,734.36,113.79,746.31z"/>
				</g>
				<g>
					<path class="st4" d="M113.79,746.31c-5.24-8.77-13.16-18.21-21.62-27.09c-8.49-8.86-17.55-17.21-26.07-22.85
						c2.72,9.83,9.45,21.02,18.31,30.26C93.23,735.9,104.09,743.14,113.79,746.31z"/>
				</g>
			</g>
			<g>
				<g>
					<path class="st4" d="M486.21,746.31c6.72-11.96,12.56-27.43,17.21-43.33c4.61-15.9,7.94-32.25,8.26-45.97
						c-9.23,10.13-17.33,25.5-22.1,41.95C484.77,715.39,483.42,732.87,486.21,746.31z"/>
				</g>
				<g>
					<path class="st4" d="M486.21,746.31c9.7-3.17,20.56-10.41,29.38-19.69c8.86-9.24,15.59-20.43,18.31-30.26
						c-8.52,5.64-17.58,13.99-26.07,22.85C499.37,728.1,491.45,737.54,486.21,746.31z"/>
				</g>
			</g>
		</g>
	</g>
	<g>
		<path class="st14" d="M371.68,220.17c-3.37-22.64-19.93-41.98-40.35-51.86c-20.42-9.88-44.15-11.11-66.43-7.06
			c-57.34,10.43-106.56,57.31-120.3,114.59c-8.97,37.39-4.01,77.94-18.53,113.5c-10.85,26.57-31.81,48.19-40.97,75.4
			c-8.94,26.56-5.27,57.16,9.69,80.79c14.96,23.63,43.37,45.46,70.96,48.35c-31.47-31.63-41.23-81.51-33.41-125.69
			c7.82-44.18,12.57-101.81,54.1-117.77c39.55-15.2,97.49-60.88,113.56-95.58L371.68,220.17z"/>
		<g>
			<path class="st15" d="M151.92,304.74c14.56,1.96,32.33,0.16,49.69-6.95c8.66-3.53,17.26-8.23,25.11-14.28
				c7.89-5.94,15.09-13.41,21.13-20.89c6.13-7.46,11.69-14.84,17.82-20.97c6.05-6.13,12.86-10.91,20.32-13.11
				c7.51-2.25,15.71-2.14,23.2-0.24c7.55,1.86,14.3,5.72,19.74,10.67c-3.58-6.38-9.6-12.51-17.57-16.39
				c-7.89-3.92-17.62-5.88-27.64-4.29c-10.15,1.57-19.51,7.05-27.01,13.77c-7.58,6.71-13.71,14.44-19.67,21.66
				c-5.92,7.3-11.82,13.78-18.57,19.58c-6.67,5.83-13.97,10.78-21.42,15.02C182.15,296.85,166.36,302.02,151.92,304.74z"/>
		</g>
		<g>
			<path class="st15" d="M234.17,214.62c7.02-3.88,15.14-7.95,24.13-10.96c8.96-3.02,18.78-4.91,28.54-4.62
				c9.68,0.31,19.31,2.99,27.47,7.38c8.2,4.36,14.82,10.52,19.38,17.13c-2.23-7.7-7.91-16.01-16.33-21.98
				c-8.36-6.02-19.19-9.82-30.28-10.16c-11.04-0.33-21.9,2.51-30.95,6.96C247.01,202.8,239.61,208.74,234.17,214.62z"/>
		</g>
		<g>
			<path class="st15" d="M138,575.27c-5.61-8.59-11.24-18.66-15.71-29.93c-4.5-11.25-7.85-23.64-9.6-36.27
				c-1.7-12.64-1.78-25.48-0.46-37.52c1.29-12.06,4.02-23.27,7.13-33.05c-6,8.28-11.3,19.25-14.32,31.77
				c-3.06,12.5-3.84,26.46-2,40.1c1.87,13.64,6.36,26.88,12.66,38.11C121.96,559.74,130.01,568.89,138,575.27z"/>
		</g>
	</g>
</g>
</svg>
