<?xml version="1.0" encoding="utf-8"?>
<!-- Generator: Adobe Illustrator 23.0.6, SVG Export Plug-In . SVG Version: 6.00 Build 0)  -->
<svg version="1.1" id="Layer_1" xmlns="http://www.w3.org/2000/svg" xmlns:xlink="http://www.w3.org/1999/xlink" x="0px" y="0px"
	 viewBox="0 0 600 800" style="enable-background:new 0 0 600 800;" xml:space="preserve">
<style type="text/css">
	.st0{fill:#262262;}
	.st1{fill:#FBC09D;}
	.st2{fill:#3E2F47;}
	.st3{fill:#B098C8;}
	.st4{fill:#7462AB;}
	.st5{opacity:0.3;}
	.st6{fill:#F8A589;}
	.st7{fill:#F48885;}
	.st8{fill:#F9A25C;}
	.st9{fill:#FFFFFF;}
	.st10{fill:#A23F4D;}
	.st11{fill:#FFD994;}
</style>
<rect class="st0" width="600" height="800"/>
<g>
	<g>
		<path class="st1" d="M345.64,521.3c-12.28,16.88-28.34,26.24-45,26.24h-2.36h-2.36c-16.66,0-32.72-9.36-45-26.24l-3.26-4.49v44.56
			l-12.2,4.84l5.02,7.2c13.18,18.89,34.76,30.15,57.79,30.15c23.03,0,44.61-11.26,57.79-30.15l5.02-7.2l-12.2-4.84v-44.56
			L345.64,521.3z"/>
		<path class="st2" d="M295.93,547.54h2.36h2.36c16.66,0,32.72-9.36,45-26.24l3.26-4.49v-59.09h-50.62h-50.62v59.09l3.26,4.49
			C263.21,538.18,279.27,547.54,295.93,547.54z"/>
	</g>
	<g>
		<path class="st3" d="M577,719.89c-11.54-47.27-45.28-86.01-90.51-103.95l-125.4-49.73l-5.02,7.2
			c-13.18,18.89-34.76,30.15-57.79,30.15c-23.03,0-44.61-11.26-57.79-30.15l-5.02-7.2l-125.4,49.73
			c-45.23,17.94-78.96,56.68-90.51,103.95L0,800h298.28h298.28L577,719.89z"/>
		<g>
			<path class="st4" d="M19.56,719.89l-2.64,10.82h562.72L577,719.89c-2.01-8.23-4.73-16.18-8.03-23.83H27.6
				C24.3,703.7,21.57,711.65,19.56,719.89z"/>
			<polygon class="st4" points="0,800 298.28,800 596.57,800 588.11,765.35 8.46,765.35 			"/>
			<path class="st4" d="M361.1,566.21l-5.02,7.2c-5.25,7.53-11.86,13.82-19.34,18.7h89.67L361.1,566.21z"/>
			<path class="st4" d="M240.49,573.41l-5.02-7.2l-65.3,25.9h89.67C252.35,587.23,245.75,580.94,240.49,573.41z"/>
			<path class="st4" d="M48.5,661.4h499.57c-11.05-13.73-24.49-25.49-39.79-34.65h-420C72.99,635.92,59.55,647.67,48.5,661.4z"/>
		</g>
		<g class="st5">
			<g>
				<path class="st2" d="M366.29,590.48c-8.94,7.57-20,14.81-32.73,19.89c-12.68,5.11-26.97,8.07-41.2,7.79
					c-14.23-0.31-28.38-3.86-40.84-9.5c-12.51-5.61-23.25-13.3-31.87-21.24c5.67,10.23,15.2,20.79,27.92,28.61
					c12.64,7.86,28.41,12.93,44.55,13.27c16.14,0.34,32.11-4.07,45.06-11.4C350.23,610.61,360.19,600.46,366.29,590.48z"/>
			</g>
			<g>
				<path class="st2" d="M117.29,793.94c4.27-20.29,5.22-47.75,1.32-74.68c-3.77-26.95-12.35-53.05-22.11-71.34
					c3.53,20.45,8.66,46.47,12.34,72.74C112.64,746.89,114.98,773.32,117.29,793.94z"/>
			</g>
			<g>
				<path class="st2" d="M479.28,793.94c-4.26-20.29-5.22-47.75-1.32-74.68c3.77-26.95,12.35-53.05,22.11-71.34
					c-3.53,20.45-8.66,46.47-12.34,72.74C483.93,746.89,481.59,773.32,479.28,793.94z"/>
			</g>
			<g>
				<path class="st2" d="M436.77,731.31c-20.78,6.23-45.47,10.01-71.7,9.18c-26.21-0.73-53.82-5.86-80.14-14.85
					c-26.36-9.03-51.44-21.66-74.05-35.33c-22.64-13.66-42.88-28.26-60.31-41.17c15.19,15.46,34.02,32.22,56.15,47.58
					c22.08,15.35,47.59,29.2,74.91,38.55c27.32,9.34,56.34,13.83,83.46,12.85C392.24,747.28,417.24,740.71,436.77,731.31z"/>
			</g>
			<g>
				<path class="st2" d="M419.73,680.52c-16.78,8.78-38.74,18.63-61.94,24.57c-23.15,6.13-47.12,8.24-66.06,8.76
					c9.08,2.65,20.03,4.38,31.81,4.49c11.77,0.13,24.35-1.37,36.52-4.53c12.16-3.18,23.87-8,34.09-13.86
					C404.38,694.12,413.09,687.27,419.73,680.52z"/>
			</g>
		</g>
	</g>
	<g>
		<g>
			
				<ellipse transform="matrix(0.2298 -0.9732 0.9732 0.2298 -257.0062 469.7678)" class="st6" cx="168.29" cy="397.25" rx="37.06" ry="37.06"/>
			<path class="st7" d="M189.23,397.25c0,11.57-9.38,20.95-20.95,20.95s-20.95-9.38-20.95-20.95c0-11.57,9.38-20.95,20.95-20.95
				S189.23,385.69,189.23,397.25z"/>
		</g>
		<g>
			
				<ellipse transform="matrix(0.7071 -0.7071 0.7071 0.7071 -155.4608 419.1939)" class="st6" cx="428.28" cy="397.25" rx="37.06" ry="37.06"/>
			<path class="st7" d="M407.33,397.25c0,11.57,9.38,20.95,20.95,20.95c11.57,0,20.95-9.38,20.95-20.95
				c0-11.57-9.38-20.95-20.95-20.95C416.71,376.31,407.33,385.69,407.33,397.25z"/>
		</g>
		<path class="st1" d="M298.28,207.95L298.28,207.95L298.28,207.95c-62.36,0-112.91,50.55-112.91,112.91v65.99
			c0,41.89,17.58,81.85,48.46,110.16l4.7,4.31c15.5,14.21,35.75,22.09,56.78,22.09h2.97h2.97c21.02,0,41.28-7.88,56.78-22.09
			l4.7-4.31c30.88-28.31,48.46-68.27,48.46-110.16v-65.99C411.19,258.5,360.64,207.95,298.28,207.95z"/>
		<path class="st8" d="M364.51,253.98c11.41-9.38,23.11,16.98,29.97,35.41c2.19,5.87,3.62,11.99,4.33,18.21l11.15,98.25l12.45-72.86
			c3.58-30-1.46-66.63-10.85-95.35c-2.8-8.56-6.31-17.17-12.59-23.62c-8.26-7.2-27.31-9.61-27.31-9.61
			c6.19-3.87,12.34-7.01,18.53-10.89c-16.56-14.45-40.72-22.32-62.55-19.77c7.24-8.42,16.76-14.87,27.27-18.45
			c-26.07-6.75-55.09-4.41-79.16,7.65c2.91-7.07,6.41-13.79,9.32-20.87c-30.28,8.91-53.81,34.18-62.96,64.38
			c-8.57-2.76-18.22,1.1-24.5,7.55c-6.28,6.45-9.79,15.06-12.59,23.62c-9.4,28.71-14.44,65.35-10.85,95.35l12.46,72.86l11.07-97.53
			c0.83-7.31,2.69-14.44,5.51-21.23c4.14-9.96,9.59-20.95,15.92-29.74c4.92-6.83,14.55-8.19,21.33-3.2
			c17.11,12.57,37.05,24.65,56.95,24.38C321.67,278.2,345.75,269.39,364.51,253.98z"/>
		<circle class="st2" cx="247.83" cy="360.2" r="10.24"/>
		<circle class="st2" cx="348.74" cy="360.2" r="10.24"/>
		<path class="st6" d="M316.96,411.51c-11.65,0.07-23.3,0.15-34.95,0.22c2.09,2.93,3.65,6.8,6.34,9.18
			c2.69,2.39,6.06,4.18,9.66,4.33c3.69,0.16,7.29-1.44,10.21-3.71C311.15,419.28,314.65,414.39,316.96,411.51z"/>
		<path class="st9" d="M338.1,436.26c-25.95,6.52-53.27,7.53-79.63,2.94c2.64,11.71,11.36,22.66,22.22,27.76s24.08,4.88,34.78-0.57
			C326.17,460.95,335.84,448.05,338.1,436.26z"/>
		<g>
			<path class="st10" d="M243.2,315.45c-12.36,1.29-22.53,8.65-27.87,18.63c19.55-2.99,39.25-5.04,58.99-6.16
				C267.03,319.26,255.57,314.16,243.2,315.45z"/>
		</g>
		<g>
			<path class="st10" d="M353.36,315.45c12.36,1.29,22.53,8.65,27.87,18.63c-19.55-2.99-39.25-5.04-58.99-6.16
				C329.53,319.26,341,314.16,353.36,315.45z"/>
		</g>
		<path class="st6" d="M314.05,486.52c-3.91-3.98-9.38-6.38-14.96-6.55c-5.58-0.17-11.19,1.89-15.34,5.63
			C293.31,485.95,304.48,486.16,314.05,486.52z"/>
		<g>
			<path class="st6" d="M268.22,373.89c-11.65-3.38-30.25-1.17-40.79,4.84C239.3,381.1,257.24,378.97,268.22,373.89z"/>
		</g>
		<g>
			<path class="st6" d="M328.35,373.89c11.65-3.38,30.25-1.17,40.79,4.84C357.27,381.1,339.32,378.97,328.35,373.89z"/>
		</g>
		<g>
			<path class="st11" d="M279.8,241.8c-4.01-10.64-4.08-22.91-0.48-34.29c3.55-11.41,10.56-21.54,19.28-29.14
				c8.69-7.68,18.74-12.93,28.05-16.5c-9.95,0.47-21.71,3.65-32.39,10.85c-10.7,7.05-19.9,18.56-24.02,31.96
				c-2.05,6.68-2.99,13.75-2.44,20.67c0.14,2.1,0.46,4.16,0.87,6.19c-1.68-3.08-3.26-6.22-4.61-9.5c-3.76-9.13-6.49-18.76-6.57-27.9
				c-0.15-9.12,2.53-17.81,7.32-24.2c-6.61,4.54-11.88,13.56-13.01,23.87c-1.25,10.35,1.17,21.27,5.25,31.16
				c4.13,9.97,10.42,18.94,17.59,25.96c3.68,3.64,7.61,6.71,11.56,9.26c4.16,3.2,8.62,5.53,12.97,6.76
				C290.93,261.31,283.68,252.5,279.8,241.8z"/>
			<path class="st11" d="M312.21,196.81c-6.36,4.31-12.07,10.67-15.63,18.2c-3.56,7.53-4.85,15.98-4.13,23.63
				c0.68,7.68,3.35,14.51,6.76,19.49c-1.67-5.81-2.74-12.55-2.44-19.62c0.27-7.05,1.89-14.41,5.02-21.05
				c3.15-6.64,7.79-12.56,13.07-17.25c5.27-4.72,11.15-8.17,16.7-10.57C325.54,190.17,318.57,192.45,312.21,196.81z"/>
		</g>
	</g>
</g>
</svg>
