<?xml version="1.0" encoding="UTF-8" ?>
<!DOCTYPE svg PUBLIC "-//W3C//DTD SVG 1.1//EN" "http://www.w3.org/Graphics/SVG/1.1/DTD/svg11.dtd">
<svg width="1815pt" height="715pt" viewBox="0 0 1815 715" version="1.1" xmlns="http://www.w3.org/2000/svg">
<g id="#007dc6ff">
<path fill="#007dc6" opacity="1.00" d=" M 524.44 36.59 C 528.69 32.89 533.19 29.19 538.67 27.50 C 538.97 32.73 537.24 37.78 535.26 42.54 C 531.01 52.53 525.15 61.72 519.09 70.69 C 523.63 88.76 527.94 106.89 532.46 124.96 C 532.84 126.59 532.86 128.26 532.95 129.92 C 531.94 130.77 530.95 132.36 529.43 131.46 C 527.90 129.97 527.20 127.87 526.48 125.93 C 523.70 116.96 520.48 107.82 514.63 100.35 C 511.97 96.95 507.32 93.73 502.94 95.92 C 495.86 100.39 487.79 104.89 484.35 112.97 C 481.30 120.14 486.68 126.89 487.91 133.81 C 484.61 134.48 482.06 132.08 479.60 130.30 C 476.47 134.93 473.85 139.89 471.03 144.72 C 468.93 148.53 466.75 152.30 464.47 156.01 C 460.84 161.71 457.92 167.84 454.02 173.36 C 469.65 173.53 485.32 173.46 500.97 173.47 C 503.77 173.51 506.60 172.96 509.37 173.58 C 509.09 173.81 508.53 174.25 508.24 174.47 C 503.02 172.72 497.43 173.85 492.03 173.55 C 479.20 173.80 466.33 172.96 453.53 174.12 C 452.97 175.58 452.35 177.03 451.56 178.38 C 444.46 190.29 437.67 202.38 430.54 214.26 C 426.64 220.82 422.80 227.42 419.02 234.05 C 415.68 239.86 412.49 245.77 408.81 251.38 C 408.23 252.30 407.69 253.24 407.17 254.20 C 404.50 259.10 401.52 263.82 398.87 268.73 C 392.61 279.53 386.39 290.35 380.00 301.08 C 377.12 305.86 374.29 310.69 371.60 315.59 C 364.75 327.45 357.80 339.27 350.93 351.13 C 363.97 351.96 377.03 351.02 390.06 351.46 C 435.65 351.47 481.25 351.40 526.84 351.50 C 467.99 351.63 409.11 351.35 350.28 351.68 C 347.37 357.50 343.75 362.93 340.68 368.66 C 334.63 379.05 328.70 389.52 322.46 399.81 C 301.41 435.99 280.30 472.14 259.29 508.35 C 342.94 508.33 426.58 508.35 510.22 508.34 C 507.71 513.39 504.11 517.79 501.24 522.62 C 452.22 522.74 403.21 522.57 354.19 522.71 C 351.86 526.83 349.05 530.67 346.87 534.88 C 395.90 534.84 444.94 534.82 493.98 534.89 C 492.41 537.13 490.88 539.39 489.56 541.79 C 440.44 542.01 391.31 541.77 342.18 541.90 C 339.91 546.08 337.16 549.98 334.80 554.10 C 383.92 554.13 433.03 554.16 482.14 554.09 C 479.78 557.70 477.32 561.25 475.01 564.90 C 426.01 564.84 377.01 564.88 328.01 564.89 C 325.38 569.32 322.46 573.59 319.97 578.10 C 369.12 578.14 418.27 578.14 467.42 578.10 C 465.74 580.57 464.10 583.06 462.34 585.47 C 413.36 585.34 364.37 585.46 315.39 585.41 C 312.87 589.33 310.26 593.20 308.08 597.33 C 357.01 597.32 405.95 597.40 454.88 597.29 C 452.15 601.77 449.21 606.13 446.57 610.66 C 303.10 610.66 159.64 610.65 16.17 610.67 C 36.24 578.80 56.36 546.97 76.41 515.10 C 77.14 513.94 77.96 512.84 78.78 511.77 C 90.13 511.93 101.47 511.87 112.82 511.80 C 163.74 453.53 215.15 395.68 266.09 337.42 C 272.34 330.16 278.81 323.10 285.01 315.80 C 272.92 315.67 260.83 315.83 248.74 315.71 C 260.87 315.58 273.01 315.75 285.15 315.63 C 289.51 311.33 293.32 306.48 297.38 301.90 C 307.07 290.84 316.73 279.76 326.55 268.82 C 331.57 263.15 336.65 257.53 341.52 251.73 C 346.72 245.67 352.15 239.81 357.28 233.70 C 357.86 233.74 359.01 233.83 359.58 233.87 L 358.62 232.28 C 364.03 226.46 369.23 220.44 374.37 214.38 C 384.36 203.05 394.33 191.71 404.31 180.38 C 406.32 178.04 408.25 175.58 410.81 173.80 C 374.57 173.14 338.31 173.84 302.07 173.52 C 300.05 173.48 297.97 173.45 296.06 174.17 L 295.75 174.67 C 295.54 174.35 295.10 173.73 294.89 173.42 C 330.60 173.47 366.32 173.46 402.05 173.48 C 405.00 173.56 407.94 173.42 410.88 173.15 C 415.65 167.47 420.79 162.11 425.44 156.34 C 428.86 152.52 432.19 148.62 435.65 144.85 C 442.48 137.28 449.15 129.58 455.89 121.94 C 457.26 120.33 459.00 118.95 459.94 117.01 C 458.08 114.86 455.39 113.45 454.05 110.81 C 460.02 108.18 467.21 111.77 473.01 108.27 C 479.39 104.38 482.18 96.85 483.78 89.90 C 484.41 86.70 486.23 83.37 484.86 80.11 C 482.99 75.85 478.28 74.04 474.10 72.90 C 465.92 70.97 457.42 70.54 449.06 71.12 C 446.95 71.15 444.77 70.96 442.85 70.02 C 441.69 68.02 443.64 65.22 445.89 65.37 C 465.21 63.71 484.51 61.66 503.84 60.08 C 510.17 51.81 516.78 43.69 524.44 36.59 M 467.37 121.82 C 459.74 131.66 451.78 141.25 444.00 150.98 C 332.50 289.14 221.01 427.32 109.51 565.49 C 108.13 567.17 106.55 568.75 105.75 570.83 C 150.81 570.89 195.88 570.83 240.94 570.86 C 245.29 563.59 250.00 556.52 254.13 549.12 C 235.74 549.17 217.35 549.14 198.96 549.13 C 290.43 408.22 381.87 267.28 473.28 126.32 C 471.41 124.69 469.48 123.12 467.37 121.82 Z" />
<path fill="#007dc6" opacity="1.00" d=" M 1693.92 435.13 C 1711.29 428.04 1731.29 429.18 1748.38 436.55 C 1756.79 440.19 1765.08 444.77 1771.80 450.99 C 1771.95 458.95 1771.91 466.93 1771.79 474.90 C 1766.93 477.97 1759.75 475.51 1757.78 470.15 C 1754.40 463.11 1747.55 458.63 1740.84 455.13 C 1729.23 448.50 1713.39 453.06 1705.62 463.51 C 1702.04 468.32 1701.56 475.20 1704.57 480.41 C 1707.78 486.95 1714.04 491.03 1719.60 495.40 C 1735.18 507.24 1751.41 518.69 1763.89 533.97 C 1769.90 541.56 1774.94 550.34 1776.21 560.09 C 1777.74 570.02 1774.64 580.15 1769.34 588.52 C 1765.90 593.80 1762.09 599.02 1756.93 602.75 C 1747.78 609.63 1736.35 612.90 1725.05 613.66 C 1715.26 614.42 1705.47 613.09 1695.82 611.58 C 1684.90 609.67 1674.03 606.90 1664.04 602.02 C 1659.06 599.34 1653.99 596.25 1650.71 591.54 C 1650.21 582.73 1649.17 573.93 1649.07 565.10 C 1652.30 562.59 1657.03 561.96 1660.51 564.36 C 1663.26 565.86 1663.96 569.10 1665.50 571.59 C 1671.50 581.71 1681.83 588.58 1692.83 592.26 C 1699.56 594.38 1706.77 596.12 1713.84 594.65 C 1719.14 593.61 1724.01 589.98 1725.87 584.80 C 1728.90 577.14 1726.13 568.51 1721.78 561.95 C 1718.10 556.14 1712.26 552.32 1707.43 547.59 C 1698.89 539.48 1690.41 531.32 1682.22 522.87 C 1678.88 519.14 1675.20 515.70 1672.39 511.53 C 1666.20 502.47 1662.28 491.83 1661.41 480.88 C 1660.73 471.51 1662.87 461.78 1668.31 454.03 C 1674.47 445.09 1683.95 439.05 1693.92 435.13 Z" />
<path fill="#007dc6" opacity="1.00" d=" M 572.95 436.01 C 574.22 434.19 575.17 431.09 578.03 431.84 C 588.14 432.13 598.33 431.32 608.40 432.27 C 618.50 477.56 629.13 522.75 639.48 567.99 C 642.54 582.26 646.39 596.37 649.00 610.71 C 624.35 610.63 599.69 610.61 575.04 610.72 C 571.21 598.69 567.83 586.52 564.23 574.42 C 550.47 574.41 536.72 574.45 522.96 574.39 C 521.50 574.55 519.40 573.85 518.65 575.60 C 510.62 587.31 502.42 598.90 494.43 610.63 C 483.89 610.69 473.35 610.63 462.81 610.67 C 471.69 595.73 481.33 581.24 490.50 566.48 C 517.97 522.98 545.51 479.53 572.95 436.01 M 553.35 525.18 C 545.96 536.27 538.01 547.03 531.02 558.37 C 541.37 558.30 551.73 558.37 562.08 558.33 C 559.62 547.25 557.09 536.19 554.56 525.13 C 554.26 525.14 553.65 525.16 553.35 525.18 Z" />
<path fill="#007dc6" opacity="1.00" d=" M 684.42 432.30 C 687.23 431.64 690.12 431.85 692.99 431.85 C 708.64 431.87 724.28 431.82 739.93 431.88 C 738.90 448.63 736.81 465.31 735.43 482.04 C 731.33 524.91 727.28 567.78 723.24 610.66 C 703.29 610.68 683.34 610.62 663.39 610.68 C 669.13 562.81 674.77 514.92 680.45 467.04 C 681.74 455.46 683.40 443.91 684.42 432.30 Z" />
<path fill="#007dc6" opacity="1.00" d=" M 761.35 432.02 C 786.90 431.63 812.47 431.98 838.03 431.84 C 855.97 431.78 874.32 436.48 889.02 447.01 C 899.38 454.64 908.22 465.88 909.35 479.08 C 910.89 498.37 897.62 516.63 880.52 524.46 C 876.18 526.69 871.28 526.91 866.57 527.71 C 866.12 531.21 869.41 533.39 870.51 536.44 C 882.34 561.20 894.57 585.79 906.13 610.68 C 883.87 610.67 861.62 610.59 839.37 610.72 C 833.18 594.48 827.07 578.21 820.91 561.96 C 817.95 554.84 815.95 547.28 812.23 540.50 C 809.41 539.57 806.99 542.47 806.75 545.05 C 803.93 566.91 801.07 588.78 798.35 610.66 C 778.71 610.59 759.07 610.79 739.44 610.56 C 746.87 551.06 754.24 491.55 761.35 432.02 M 819.89 448.93 C 819.73 449.43 819.43 450.42 819.27 450.92 C 816.69 471.67 814.01 492.41 811.41 513.16 C 822.57 513.70 834.44 510.49 842.36 502.26 C 849.30 494.66 852.48 484.16 852.57 474.00 C 852.49 465.85 849.81 457.03 843.04 451.98 C 836.48 447.01 827.55 446.86 819.89 448.93 Z" />
<path fill="#007dc6" opacity="1.00" d=" M 942.58 431.89 C 963.39 431.81 984.21 431.88 1005.03 431.85 C 1019.34 432.12 1033.72 431.09 1047.95 432.92 C 1061.34 434.66 1075.52 437.93 1085.74 447.31 C 1093.30 453.90 1096.78 464.15 1096.45 474.01 C 1096.19 484.80 1093.68 496.11 1086.56 504.53 C 1077.17 515.67 1063.24 521.62 1049.46 525.26 C 1031.72 529.72 1013.28 531.19 995.03 530.48 C 992.19 557.21 989.10 583.92 986.36 610.66 C 965.25 610.70 944.15 610.58 923.05 610.71 C 929.45 551.10 936.09 491.50 942.58 431.89 M 1002.97 446.62 C 1000.70 468.87 997.60 491.05 995.06 513.28 C 1005.24 514.59 1016.28 512.12 1023.99 505.08 C 1031.93 498.00 1035.53 487.32 1036.91 477.04 C 1037.87 468.37 1036.41 458.52 1029.85 452.23 C 1022.67 445.73 1012.10 444.84 1002.97 446.62 Z" />
<path fill="#007dc6" opacity="1.00" d=" M 1207.44 432.66 C 1228.09 430.27 1249.84 434.13 1267.24 445.89 C 1281.25 455.44 1293.69 469.06 1297.55 486.00 C 1303.33 509.27 1302.00 534.78 1291.59 556.58 C 1284.72 571.03 1273.40 583.15 1260.03 591.83 C 1242.90 602.84 1222.90 608.55 1202.88 611.38 C 1189.95 613.57 1176.66 612.16 1163.99 609.13 C 1147.56 605.08 1131.52 596.54 1121.61 582.47 C 1114.92 573.27 1111.19 562.17 1109.81 550.94 C 1107.19 528.69 1111.34 505.61 1122.24 485.98 C 1132.17 467.68 1148.20 452.87 1167.07 444.13 C 1179.81 438.21 1193.50 434.31 1207.44 432.66 M 1210.44 453.59 C 1204.01 455.85 1198.98 460.74 1194.71 465.87 C 1185.40 477.63 1179.50 491.69 1175.39 506.02 C 1170.15 525.10 1167.77 545.33 1171.15 564.95 C 1172.89 573.53 1175.66 582.65 1182.44 588.62 C 1186.85 592.67 1193.57 593.45 1198.95 590.96 C 1207.62 587.15 1213.69 579.37 1218.71 571.61 C 1224.30 562.54 1228.52 552.65 1231.65 542.48 C 1237.19 524.09 1239.80 504.62 1237.69 485.46 C 1236.46 475.93 1234.09 465.94 1227.70 458.47 C 1223.59 453.58 1216.52 451.20 1210.44 453.59 Z" />
<path fill="#007dc6" opacity="1.00" d=" M 1331.04 431.91 C 1357.68 431.80 1384.33 431.85 1410.98 431.89 C 1431.72 432.58 1453.45 439.61 1467.68 455.35 C 1473.58 461.88 1478.16 470.04 1478.81 478.96 C 1480.43 498.13 1467.34 516.26 1450.47 524.27 C 1445.88 526.68 1440.67 526.87 1435.70 527.84 C 1435.78 530.85 1438.31 532.81 1439.47 535.41 C 1451.67 560.46 1463.61 585.64 1475.88 610.67 C 1453.48 610.58 1431.07 610.80 1408.68 610.55 C 1400.89 589.35 1392.70 568.29 1384.79 547.13 C 1383.67 544.74 1383.30 541.43 1380.63 540.23 C 1378.06 540.19 1376.68 542.85 1376.22 545.03 C 1373.39 566.93 1370.62 588.85 1367.76 610.74 C 1348.18 610.57 1328.60 610.66 1309.02 610.70 C 1316.32 551.10 1323.55 491.49 1331.04 431.91 M 1388.96 448.96 C 1386.32 470.37 1383.69 491.78 1380.79 513.15 C 1392.50 513.75 1405.17 510.22 1412.92 500.95 C 1419.01 493.79 1421.62 484.29 1422.12 475.05 C 1422.14 466.62 1419.67 457.45 1412.72 452.09 C 1405.98 446.91 1396.85 446.96 1388.96 448.96 Z" />
<path fill="#007dc6" opacity="1.00" d=" M 1489.89 432.59 C 1541.40 432.58 1592.90 432.56 1644.41 432.60 C 1644.41 437.44 1644.45 442.28 1644.38 447.12 C 1630.53 447.18 1616.69 447.13 1602.85 447.15 C 1597.28 495.08 1591.76 543.02 1586.20 590.95 C 1585.36 597.55 1584.85 604.19 1583.77 610.76 C 1561.52 610.55 1539.26 610.68 1517.01 610.69 C 1523.38 556.16 1530.19 501.67 1536.41 447.12 C 1522.28 447.19 1508.15 447.09 1494.03 447.17 C 1492.74 446.86 1490.35 447.88 1489.91 446.18 C 1489.73 441.65 1489.88 437.12 1489.89 432.59 Z" />
</g>
<g id="#f68b33ff">
<path fill="#f68b33" opacity="1.00" d=" M 264.15 144.40 C 310.77 144.63 357.40 144.43 404.02 144.50 C 414.56 144.72 425.15 144.05 435.65 144.85 C 432.19 148.62 428.86 152.52 425.44 156.34 C 421.96 155.88 418.45 156.12 414.95 156.08 C 365.86 156.05 316.76 156.12 267.67 156.05 C 266.01 152.33 265.50 148.23 264.15 144.40 Z" />
<path fill="#f68b33" opacity="1.00" d=" M 471.03 144.72 C 493.95 144.15 516.92 144.78 539.85 144.40 C 539.17 146.52 538.62 148.70 537.80 150.78 C 537.38 152.51 537.43 154.66 536.20 156.01 C 512.30 156.12 488.38 156.12 464.47 156.01 C 466.75 152.30 468.93 148.53 471.03 144.72 Z" />
<path fill="#f68b33" opacity="1.00" d=" M 296.06 174.17 C 297.97 173.45 300.05 173.48 302.07 173.52 C 338.31 173.84 374.57 173.14 410.81 173.80 C 408.25 175.58 406.32 178.04 404.31 180.38 C 394.33 191.71 384.36 203.05 374.37 214.38 C 356.81 214.25 339.25 214.22 321.69 214.40 C 315.45 205.82 309.97 196.68 304.20 187.77 C 301.39 183.41 298.26 179.13 295.75 174.67 L 296.06 174.17 Z" />
<path fill="#f68b33" opacity="1.00" d=" M 453.53 174.12 C 466.33 172.96 479.20 173.80 492.03 173.55 C 497.43 173.85 503.02 172.72 508.24 174.47 L 508.73 174.61 C 505.25 178.61 502.90 183.46 499.83 187.77 C 499.15 188.77 498.48 189.77 497.82 190.79 C 493.33 198.02 488.54 205.06 484.02 212.27 C 483.31 213.24 482.54 214.77 481.05 214.31 C 464.21 214.26 447.37 214.36 430.54 214.26 C 437.67 202.38 444.46 190.29 451.56 178.38 C 452.35 177.03 452.97 175.58 453.53 174.12 Z" />
<path fill="#f68b33" opacity="1.00" d=" M 355.11 233.35 C 356.43 233.69 357.52 232.82 358.62 232.28 L 359.58 233.87 C 359.01 233.83 357.86 233.74 357.28 233.70 C 352.15 239.81 346.72 245.67 341.52 251.73 C 323.99 251.21 306.42 251.62 288.88 251.52 C 292.03 247.12 295.03 242.61 298.22 238.23 C 299.33 236.65 300.33 234.99 301.32 233.34 C 319.25 233.32 337.18 233.30 355.11 233.35 Z" />
<path fill="#f68b33" opacity="1.00" d=" M 419.02 234.05 C 420.14 233.14 421.62 233.32 422.96 233.29 C 449.54 233.38 476.12 233.28 502.70 233.34 C 503.20 234.24 503.72 235.14 504.26 236.03 C 507.28 241.32 511.94 245.67 514.05 251.45 C 478.97 251.40 443.89 251.54 408.81 251.38 C 412.49 245.77 415.68 239.86 419.02 234.05 Z" />
<path fill="#f68b33" opacity="1.00" d=" M 274.19 272.22 C 274.99 270.98 275.89 269.80 276.84 268.67 C 293.41 268.82 309.98 268.52 326.55 268.82 C 316.73 279.76 307.07 290.84 297.38 301.90 C 296.04 300.34 293.73 301.33 291.96 301.06 C 279.05 300.84 266.09 301.61 253.21 300.64 C 254.30 299.57 255.30 298.43 256.24 297.23 C 257.75 294.79 259.50 292.52 261.23 290.23 C 265.47 284.17 269.81 278.18 274.19 272.22 Z" />
<path fill="#f68b33" opacity="1.00" d=" M 380.00 301.08 C 386.39 290.35 392.61 279.53 398.87 268.73 C 441.64 268.64 484.41 268.76 527.17 268.67 C 529.80 272.12 532.35 275.63 534.81 279.21 C 539.13 285.21 543.59 291.13 547.73 297.27 C 548.66 298.45 549.69 299.57 550.80 300.61 C 546.55 301.34 542.24 301.03 537.96 301.08 C 485.31 301.08 432.66 301.08 380.00 301.08 Z" />
<path fill="#f68b33" opacity="1.00" d=" M 248.74 315.71 C 260.83 315.83 272.92 315.67 285.01 315.80 C 278.81 323.10 272.34 330.16 266.09 337.42 C 265.09 336.25 264.11 335.06 263.21 333.82 C 260.54 330.47 257.75 327.21 255.23 323.74 C 253.85 322.10 252.42 320.50 251.22 318.72 C 250.40 317.71 249.57 316.70 248.74 315.71 Z" />
<path fill="#f68b33" opacity="1.00" d=" M 350.93 351.13 C 357.80 339.27 364.75 327.45 371.60 315.59 C 432.78 315.91 493.96 315.51 555.14 315.79 C 552.98 318.41 551.04 321.21 548.77 323.73 C 547.57 325.51 546.15 327.12 544.75 328.74 C 543.57 330.52 542.15 332.12 540.76 333.73 C 539.54 335.51 538.15 337.16 536.78 338.82 C 533.55 343.11 529.94 347.11 526.84 351.50 C 481.25 351.40 435.65 351.47 390.06 351.46 C 377.03 351.02 363.97 351.96 350.93 351.13 Z" />
<path fill="#f68b33" opacity="1.00" d=" M 322.46 399.81 C 328.70 389.52 334.63 379.05 340.68 368.66 C 396.06 368.70 451.44 368.79 506.82 368.62 C 505.75 373.19 500.64 375.40 498.31 379.35 C 495.00 383.33 491.11 386.80 487.96 390.93 C 484.92 394.24 481.71 397.41 478.87 400.91 C 477.47 402.52 476.04 404.09 474.62 405.68 C 426.21 405.67 377.81 405.68 329.40 405.68 C 327.61 403.55 325.33 401.78 324.09 399.24 C 323.68 399.38 322.87 399.66 322.46 399.81 Z" />
<path fill="#f68b33" opacity="1.00" d=" M 360.50 417.93 C 388.17 417.91 415.83 417.92 443.49 417.93 C 443.50 443.98 443.50 470.02 443.49 496.07 C 415.83 496.09 388.17 496.08 360.51 496.07 C 360.49 470.02 360.50 443.98 360.50 417.93 Z" />
<path fill="#f68b33" opacity="1.00" d=" M 360.49 622.68 C 388.16 622.71 415.84 622.71 443.51 622.68 C 443.52 641.97 443.45 661.25 443.54 680.54 C 415.85 680.47 388.15 680.47 360.46 680.54 C 360.55 661.26 360.48 641.97 360.49 622.68 Z" />
</g>
<g id="#24668a33">
<path fill="#24668a" opacity="0.20" d=" M 504.26 236.03 C 508.31 240.96 511.71 246.40 515.26 251.69 C 479.85 251.61 444.42 251.53 409.01 251.73 C 408.39 252.55 407.78 253.38 407.17 254.20 C 407.69 253.24 408.23 252.30 408.81 251.38 C 443.89 251.54 478.97 251.40 514.05 251.45 C 511.94 245.67 507.28 241.32 504.26 236.03 Z" />
<path fill="#24668a" opacity="0.20" d=" M 1458.64 283.71 C 1461.45 282.99 1464.44 283.03 1467.27 283.73 C 1464.38 283.67 1461.51 283.67 1458.64 283.71 Z" />
<path fill="#24668a" opacity="0.20" d=" M 1453.17 284.93 C 1453.61 283.19 1454.53 282.97 1455.95 284.26 C 1455.07 284.77 1454.14 285.00 1453.17 284.93 Z" />
<path fill="#24668a" opacity="0.20" d=" M 1470.07 284.22 C 1471.53 283.05 1472.45 283.35 1472.81 285.10 C 1471.78 285.11 1470.86 284.81 1470.07 284.22 Z" />
<path fill="#24668a" opacity="0.20" d=" M 589.33 287.93 C 588.02 286.57 588.16 285.63 589.72 285.10 C 590.04 286.08 589.91 287.02 589.33 287.93 Z" />
<path fill="#24668a" opacity="0.20" d=" M 837.19 285.12 L 838.00 285.35 C 837.92 285.78 837.75 286.66 837.67 287.09 C 837.55 286.60 837.31 285.61 837.19 285.12 Z" />
<path fill="#24668a" opacity="0.20" d=" M 983.31 285.15 C 984.76 285.80 984.68 286.33 983.06 286.72 C 983.12 286.33 983.25 285.54 983.31 285.15 Z" />
<path fill="#24668a" opacity="0.20" d=" M 1450.30 284.95 L 1451.31 284.55 L 1452.06 285.07 C 1451.58 285.26 1450.60 285.66 1450.11 285.85 L 1450.30 284.95 Z" />
<path fill="#24668a" opacity="0.20" d=" M 1584.33 288.90 C 1582.99 288.20 1582.92 284.96 1584.78 285.14 C 1585.09 286.41 1584.63 287.68 1584.33 288.90 Z" />
<path fill="#24668a" opacity="0.20" d=" M 1351.39 286.60 C 1351.43 286.54 1351.51 286.42 1351.55 286.37 C 1351.51 286.42 1351.43 286.54 1351.39 286.60 Z" />
<path fill="#24668a" opacity="0.20" d=" M 1764.94 286.17 C 1766.60 286.55 1766.87 287.46 1765.75 288.89 C 1765.04 288.08 1764.77 287.17 1764.94 286.17 Z" />
<path fill="#24668a" opacity="0.20" d=" M 697.16 292.74 C 697.10 290.86 697.17 288.97 697.67 287.16 C 698.90 288.43 699.28 292.45 697.16 292.74 Z" />
<path fill="#24668a" opacity="0.20" d=" M 668.48 288.72 C 668.52 288.66 668.59 288.53 668.63 288.47 C 668.59 288.53 668.52 288.66 668.48 288.72 Z" />
<path fill="#24668a" opacity="0.20" d=" M 1156.14 288.09 L 1157.04 288.28 L 1157.41 289.31 L 1156.86 290.07 C 1156.68 289.58 1156.32 288.58 1156.14 288.09 Z" />
<path fill="#24668a" opacity="0.20" d=" M 1334.45 288.61 C 1334.49 288.55 1334.56 288.42 1334.60 288.36 C 1334.56 288.42 1334.49 288.55 1334.45 288.61 Z" />
<path fill="#24668a" opacity="0.20" d=" M 944.37 292.95 C 942.92 292.26 943.00 288.90 944.94 289.24 C 944.96 290.50 944.70 291.74 944.37 292.95 Z" />
<path fill="#24668a" opacity="0.20" d=" M 817.50 291.67 C 817.54 291.61 817.62 291.50 817.66 291.44 C 817.62 291.50 817.54 291.61 817.50 291.67 Z" />
<path fill="#24668a" opacity="0.20" d=" M 1618.13 295.78 C 1618.06 294.20 1618.26 292.63 1618.63 291.10 C 1619.97 292.05 1620.17 295.82 1618.13 295.78 Z" />
<path fill="#24668a" opacity="0.20" d=" M 1157.15 292.09 L 1158.02 292.35 L 1158.30 293.41 L 1157.67 294.13 C 1157.54 293.62 1157.28 292.60 1157.15 292.09 Z" />
<path fill="#24668a" opacity="0.20" d=" M 1134.50 293.69 C 1134.54 293.63 1134.62 293.51 1134.66 293.45 C 1134.62 293.51 1134.54 293.63 1134.50 293.69 Z" />
<path fill="#24668a" opacity="0.20" d=" M 815.52 294.62 C 815.56 294.56 815.64 294.44 815.68 294.38 C 815.64 294.44 815.56 294.56 815.52 294.62 Z" />
<path fill="#24668a" opacity="0.20" d=" M 839.16 294.05 L 840.05 294.25 L 840.41 295.27 L 839.85 296.03 C 839.68 295.54 839.33 294.54 839.16 294.05 Z" />
<path fill="#24668a" opacity="0.20" d=" M 1330.49 294.67 C 1330.53 294.62 1330.60 294.50 1330.64 294.44 C 1330.60 294.50 1330.53 294.62 1330.49 294.67 Z" />
<path fill="#24668a" opacity="0.20" d=" M 1492.39 294.83 C 1492.95 299.59 1492.93 304.48 1492.36 309.25 C 1492.23 304.44 1492.23 299.63 1492.39 294.83 Z" />
<path fill="#24668a" opacity="0.20" d=" M 1742.50 295.69 C 1742.54 295.63 1742.62 295.51 1742.66 295.45 C 1742.62 295.51 1742.54 295.63 1742.50 295.69 Z" />
<path fill="#24668a" opacity="0.20" d=" M 1767.10 295.12 L 1767.99 295.31 L 1768.36 296.33 L 1767.82 297.09 C 1767.64 296.60 1767.28 295.61 1767.10 295.12 Z" />
<path fill="#24668a" opacity="0.20" d=" M 1132.50 296.66 C 1132.54 296.60 1132.62 296.48 1132.66 296.42 C 1132.62 296.48 1132.54 296.60 1132.50 296.66 Z" />
<path fill="#24668a" opacity="0.20" d=" M 1344.37 296.62 C 1344.41 296.56 1344.49 296.44 1344.53 296.39 C 1344.49 296.44 1344.41 296.56 1344.37 296.62 Z" />
<path fill="#24668a" opacity="0.20" d=" M 1462.87 296.72 C 1463.37 296.56 1464.38 296.22 1464.88 296.06 L 1464.67 296.97 L 1463.63 297.32 L 1462.87 296.72 Z" />
<path fill="#24668a" opacity="0.20" d=" M 1328.51 297.66 C 1328.55 297.60 1328.63 297.48 1328.67 297.42 C 1328.63 297.48 1328.55 297.60 1328.51 297.66 Z" />
<path fill="#24668a" opacity="0.20" d=" M 696.15 303.77 C 696.09 301.87 696.28 299.98 696.68 298.13 C 697.87 299.46 698.36 303.49 696.15 303.77 Z" />
<path fill="#24668a" opacity="0.20" d=" M 840.16 298.05 L 841.03 298.32 L 841.29 299.37 L 840.66 300.08 C 840.53 299.57 840.28 298.56 840.16 298.05 Z" />
<path fill="#24668a" opacity="0.20" d=" M 1433.49 298.69 C 1433.53 298.64 1433.59 298.52 1433.63 298.46 C 1433.59 298.52 1433.53 298.64 1433.49 298.69 Z" />
<path fill="#24668a" opacity="0.20" d=" M 1740.49 298.67 C 1740.53 298.62 1740.61 298.50 1740.65 298.44 C 1740.61 298.50 1740.53 298.62 1740.49 298.67 Z" />
<path fill="#24668a" opacity="0.20" d=" M 1130.45 299.69 C 1130.49 299.63 1130.56 299.51 1130.60 299.46 C 1130.56 299.51 1130.49 299.63 1130.45 299.69 Z" />
<path fill="#24668a" opacity="0.20" d=" M 1767.91 299.20 C 1769.59 299.55 1769.89 300.48 1768.80 301.96 C 1768.12 301.14 1767.82 300.22 1767.91 299.20 Z" />
<path fill="#24668a" opacity="0.20" d=" M 587.29 304.85 C 585.94 303.82 585.91 300.11 588.01 300.26 C 588.00 301.81 587.66 303.34 587.29 304.85 Z" />
<path fill="#24668a" opacity="0.20" d=" M 811.45 300.64 C 811.49 300.58 811.57 300.46 811.62 300.40 C 811.57 300.46 811.49 300.58 811.45 300.64 Z" />
<path fill="#24668a" opacity="0.20" d=" M 1326.50 300.74 C 1326.54 300.68 1326.62 300.56 1326.66 300.50 C 1326.62 300.56 1326.54 300.68 1326.50 300.74 Z" />
<path fill="#24668a" opacity="0.20" d=" M 1582.35 303.92 C 1580.88 303.24 1580.97 299.89 1582.91 300.20 C 1582.91 301.46 1582.68 302.70 1582.35 303.92 Z" />
<path fill="#24668a" opacity="0.20" d=" M 1159.17 301.06 L 1160.07 301.28 L 1160.41 302.31 L 1159.85 303.05 C 1159.68 302.56 1159.34 301.56 1159.17 301.06 Z" />
<path fill="#24668a" opacity="0.20" d=" M 1617.12 304.79 C 1617.02 303.53 1617.25 302.30 1617.60 301.10 C 1619.02 301.73 1619.02 305.15 1617.12 304.79 Z" />
<path fill="#24668a" opacity="0.20" d=" M 1738.45 301.67 C 1738.49 301.61 1738.57 301.49 1738.61 301.43 C 1738.57 301.49 1738.49 301.61 1738.45 301.67 Z" />
<path fill="#24668a" opacity="0.20" d=" M 942.37 307.91 C 940.88 307.26 941.01 303.91 942.93 304.24 C 942.95 305.48 942.72 306.71 942.37 307.91 Z" />
<path fill="#24668a" opacity="0.20" d=" M 1769.19 304.04 L 1770.07 304.23 L 1770.43 305.25 L 1769.89 306.01 C 1769.72 305.52 1769.36 304.53 1769.19 304.04 Z" />
<path fill="#24668a" opacity="0.20" d=" M 658.48 305.77 C 658.51 305.71 658.59 305.59 658.62 305.52 C 658.59 305.59 658.51 305.71 658.48 305.77 Z" />
<path fill="#24668a" opacity="0.20" d=" M 1126.44 305.64 C 1126.48 305.58 1126.57 305.46 1126.61 305.40 C 1126.57 305.46 1126.48 305.58 1126.44 305.64 Z" />
<path fill="#24668a" opacity="0.20" d=" M 1160.13 305.10 L 1161.01 305.34 L 1161.33 306.38 L 1160.74 307.12 C 1160.59 306.61 1160.28 305.61 1160.13 305.10 Z" />
<path fill="#24668a" opacity="0.20" d=" M 657.41 307.61 C 657.45 307.55 657.52 307.43 657.56 307.36 C 657.52 307.43 657.45 307.55 657.41 307.61 Z" />
<path fill="#24668a" opacity="0.20" d=" M 842.16 307.05 L 843.06 307.26 L 843.42 308.28 L 842.86 309.04 C 842.69 308.54 842.34 307.55 842.16 307.05 Z" />
<path fill="#24668a" opacity="0.20" d=" M 586.33 312.82 C 584.89 311.92 584.81 308.14 586.89 308.28 C 586.89 309.81 586.68 311.33 586.33 312.82 Z" />
<path fill="#24668a" opacity="0.20" d=" M 1770.16 308.13 L 1771.04 308.36 L 1771.38 309.40 L 1770.81 310.14 C 1770.64 309.64 1770.32 308.63 1770.16 308.13 Z" />
<path fill="#24668a" opacity="0.20" d=" M 1488.30 309.04 C 1488.91 309.07 1490.12 309.12 1490.72 309.14 C 1491.44 310.99 1487.60 310.82 1488.30 309.04 Z" />
<path fill="#24668a" opacity="0.20" d=" M 1161.21 310.04 L 1162.09 310.25 L 1162.45 311.27 L 1161.90 312.03 C 1161.73 311.53 1161.39 310.54 1161.21 310.04 Z" />
<path fill="#24668a" opacity="0.20" d=" M 843.04 311.12 L 843.93 311.31 L 844.30 312.32 L 843.75 313.08 C 843.58 312.59 843.22 311.61 843.04 311.12 Z" />
<path fill="#24668a" opacity="0.20" d=" M 941.34 315.91 C 939.90 315.22 939.95 311.88 941.86 312.16 C 941.91 313.43 941.68 314.68 941.34 315.91 Z" />
<path fill="#24668a" opacity="0.20" d=" M 1770.90 312.17 C 1772.60 312.55 1772.89 313.47 1771.78 314.91 C 1771.10 314.10 1770.81 313.19 1770.90 312.17 Z" />
<path fill="#24668a" opacity="0.20" d=" M 1162.18 314.05 L 1163.05 314.26 L 1163.39 315.29 L 1162.83 316.04 C 1162.67 315.54 1162.34 314.55 1162.18 314.05 Z" />
<path fill="#24668a" opacity="0.20" d=" M 1580.35 318.94 C 1578.91 318.26 1578.96 314.85 1580.91 315.25 C 1580.93 316.50 1580.69 317.74 1580.35 318.94 Z" />
<path fill="#24668a" opacity="0.20" d=" M 844.22 316.05 L 845.10 316.27 L 845.44 317.30 L 844.89 318.05 C 844.72 317.55 844.39 316.55 844.22 316.05 Z" />
<path fill="#24668a" opacity="0.20" d=" M 1431.20 315.99 C 1431.35 316.49 1431.65 317.49 1431.80 317.99 L 1430.92 317.77 L 1430.61 316.73 L 1431.20 315.99 Z" />
<path fill="#24668a" opacity="0.20" d=" M 651.52 317.70 C 651.55 317.64 651.63 317.52 651.66 317.45 C 651.63 317.52 651.55 317.64 651.52 317.70 Z" />
<path fill="#24668a" opacity="0.20" d=" M 1772.20 317.03 L 1773.08 317.24 L 1773.43 318.26 L 1772.88 319.01 C 1772.71 318.52 1772.37 317.52 1772.20 317.03 Z" />
<path fill="#24668a" opacity="0.20" d=" M 1163.08 318.10 L 1163.97 318.32 L 1164.31 319.34 L 1163.74 320.08 C 1163.57 319.58 1163.24 318.59 1163.08 318.10 Z" />
<path fill="#24668a" opacity="0.20" d=" M 798.48 319.70 C 798.52 319.65 798.60 319.53 798.64 319.47 C 798.60 319.53 798.52 319.65 798.48 319.70 Z" />
<path fill="#24668a" opacity="0.20" d=" M 1615.16 323.80 C 1615.07 322.21 1615.29 320.64 1615.67 319.11 C 1616.95 320.09 1617.22 323.87 1615.16 323.80 Z" />
<path fill="#24668a" opacity="0.20" d=" M 845.20 320.06 L 846.07 320.29 L 846.40 321.32 L 845.83 322.07 C 845.67 321.57 845.35 320.56 845.20 320.06 Z" />
<path fill="#24668a" opacity="0.20" d=" M 1313.51 320.66 C 1313.55 320.60 1313.62 320.48 1313.66 320.42 C 1313.62 320.48 1313.55 320.60 1313.51 320.66 Z" />
<path fill="#24668a" opacity="0.20" d=" M 1432.40 320.33 C 1432.42 320.39 1432.47 320.53 1432.49 320.60 C 1432.47 320.53 1432.42 320.39 1432.40 320.33 Z" />
<path fill="#24668a" opacity="0.20" d=" M 1115.49 321.70 C 1115.53 321.64 1115.61 321.52 1115.65 321.47 C 1115.61 321.52 1115.53 321.64 1115.49 321.70 Z" />
<path fill="#24668a" opacity="0.20" d=" M 1773.15 321.06 L 1774.03 321.31 L 1774.31 322.36 L 1773.69 323.09 C 1773.55 322.58 1773.29 321.56 1773.15 321.06 Z" />
<path fill="#24668a" opacity="0.20" d=" M 796.50 322.65 C 796.54 322.59 796.63 322.47 796.67 322.41 C 796.63 322.47 796.54 322.59 796.50 322.65 Z" />
<path fill="#24668a" opacity="0.20" d=" M 1164.22 323.04 L 1165.10 323.26 L 1165.44 324.29 L 1164.88 325.03 C 1164.72 324.53 1164.39 323.54 1164.22 323.04 Z" />
<path fill="#24668a" opacity="0.20" d=" M 1309.35 323.46 C 1309.38 323.52 1309.45 323.65 1309.48 323.72 C 1309.45 323.65 1309.38 323.52 1309.35 323.46 Z" />
<path fill="#24668a" opacity="0.20" d=" M 1311.48 323.69 C 1311.52 323.63 1311.62 323.51 1311.66 323.45 C 1311.62 323.51 1311.52 323.63 1311.48 323.69 Z" />
<path fill="#24668a" opacity="0.20" d=" M 1723.51 323.67 C 1723.55 323.62 1723.62 323.50 1723.66 323.44 C 1723.62 323.50 1723.55 323.62 1723.51 323.67 Z" />
<path fill="#24668a" opacity="0.20" d=" M 846.06 324.11 L 846.95 324.33 L 847.30 325.35 L 846.74 326.10 C 846.57 325.60 846.23 324.61 846.06 324.11 Z" />
<path fill="#24668a" opacity="0.20" d=" M 1113.51 324.66 C 1113.54 324.60 1113.62 324.48 1113.66 324.43 C 1113.62 324.48 1113.54 324.60 1113.51 324.66 Z" />
<path fill="#24668a" opacity="0.20" d=" M 794.43 325.70 C 794.47 325.64 794.55 325.52 794.59 325.46 C 794.55 325.52 794.47 325.64 794.43 325.70 Z" />
<path fill="#24668a" opacity="0.20" d=" M 1721.51 326.65 C 1721.55 326.60 1721.63 326.48 1721.66 326.42 C 1721.63 326.48 1721.55 326.60 1721.51 326.65 Z" />
<path fill="#24668a" opacity="0.20" d=" M 939.31 330.87 C 937.89 330.18 937.97 326.80 939.90 327.18 C 939.93 328.43 939.66 329.67 939.31 330.87 Z" />
<path fill="#24668a" opacity="0.20" d=" M 1111.47 327.66 C 1111.51 327.60 1111.58 327.49 1111.62 327.43 C 1111.58 327.49 1111.51 327.60 1111.47 327.66 Z" />
<path fill="#24668a" opacity="0.20" d=" M 1165.19 327.05 L 1166.07 327.28 L 1166.39 328.32 L 1165.81 329.06 C 1165.66 328.56 1165.35 327.55 1165.19 327.05 Z" />
<path fill="#24668a" opacity="0.20" d=" M 847.23 329.05 L 848.11 329.27 L 848.44 330.30 L 847.88 331.05 C 847.72 330.55 847.39 329.55 847.23 329.05 Z" />
<path fill="#24668a" opacity="0.20" d=" M 1614.11 333.68 C 1614.03 332.14 1614.25 330.60 1614.63 329.11 C 1615.99 330.02 1616.16 333.84 1614.11 333.68 Z" />
<path fill="#24668a" opacity="0.20" d=" M 1719.46 329.68 C 1719.50 329.62 1719.58 329.50 1719.62 329.44 C 1719.58 329.50 1719.50 329.62 1719.46 329.68 Z" />
<path fill="#24668a" opacity="0.20" d=" M 1578.36 333.91 C 1576.90 333.23 1576.99 329.86 1578.92 330.20 C 1578.93 331.46 1578.70 332.70 1578.36 333.91 Z" />
<path fill="#24668a" opacity="0.20" d=" M 1775.18 330.08 L 1776.07 330.29 L 1776.41 331.32 L 1775.85 332.07 C 1775.68 331.57 1775.34 330.57 1775.18 330.08 Z" />
<path fill="#24668a" opacity="0.20" d=" M 1166.12 331.13 L 1167.00 331.38 L 1167.30 332.42 L 1166.68 333.15 C 1166.54 332.65 1166.26 331.64 1166.12 331.13 Z" />
<path fill="#24668a" opacity="0.20" d=" M 639.82 333.30 C 640.25 333.33 641.10 333.38 641.53 333.41 L 642.00 334.24 L 641.68 334.93 C 640.54 335.02 639.92 334.47 639.82 333.30 Z" />
<path fill="#24668a" opacity="0.20" d=" M 848.19 333.06 L 849.07 333.28 L 849.40 334.31 L 848.83 335.06 C 848.67 334.56 848.35 333.56 848.19 333.06 Z" />
<path fill="#24668a" opacity="0.20" d=" M 1107.43 333.65 C 1107.47 333.60 1107.55 333.48 1107.59 333.42 C 1107.55 333.48 1107.47 333.60 1107.43 333.65 Z" />
<path fill="#24668a" opacity="0.20" d=" M 938.30 338.83 C 936.92 337.87 936.79 334.12 938.89 334.27 C 938.90 335.81 938.67 337.34 938.30 338.83 Z" />
<path fill="#24668a" opacity="0.20" d=" M 1776.13 334.06 L 1777.00 334.31 L 1777.29 335.35 L 1776.67 336.09 C 1776.54 335.58 1776.26 334.57 1776.13 334.06 Z" />
<path fill="#24668a" opacity="0.20" d=" M 976.11 338.83 C 976.06 337.55 976.30 336.29 976.67 335.08 C 978.06 335.77 978.02 339.14 976.11 338.83 Z" />
<path fill="#24668a" opacity="0.20" d=" M 1715.40 335.65 C 1715.44 335.60 1715.52 335.48 1715.56 335.42 C 1715.52 335.48 1715.44 335.60 1715.40 335.65 Z" />
<path fill="#24668a" opacity="0.20" d=" M 848.92 337.17 C 850.64 337.56 850.91 338.48 849.74 339.92 C 849.12 339.09 848.84 338.17 848.92 337.17 Z" />
<path fill="#24668a" opacity="0.20" d=" M 1613.13 342.74 C 1613.07 341.17 1613.27 339.62 1613.66 338.11 C 1614.99 339.05 1615.18 342.86 1613.13 342.74 Z" />
<path fill="#24668a" opacity="0.20" d=" M 1168.13 340.12 L 1169.03 340.32 L 1169.39 341.34 L 1168.83 342.10 C 1168.66 341.60 1168.31 340.61 1168.13 340.12 Z" />
<path fill="#24668a" opacity="0.20" d=" M 582.35 344.91 C 580.93 344.22 580.95 340.86 582.87 341.17 C 582.93 342.44 582.69 343.69 582.35 344.91 Z" />
<path fill="#24668a" opacity="0.20" d=" M 1125.90 341.19 L 1126.77 341.34 C 1126.74 341.76 1126.68 342.59 1126.65 343.01 C 1126.39 342.74 1125.88 342.20 1125.63 341.92 L 1125.90 341.19 Z" />
<path fill="#24668a" opacity="0.20" d=" M 807.77 342.29 C 809.39 342.68 809.68 343.57 808.63 344.96 C 807.81 344.22 807.53 343.33 807.77 342.29 Z" />
<path fill="#24668a" opacity="0.20" d=" M 937.36 345.90 C 935.89 345.25 935.96 341.86 937.89 342.22 C 937.93 343.46 937.70 344.70 937.36 345.90 Z" />
<path fill="#24668a" opacity="0.20" d=" M 1488.43 342.41 C 1488.47 342.47 1488.55 342.58 1488.60 342.63 C 1488.55 342.58 1488.47 342.47 1488.43 342.41 Z" />
<path fill="#24668a" opacity="0.20" d=" M 1778.16 343.09 L 1779.05 343.28 L 1779.42 344.30 L 1778.87 345.07 C 1778.69 344.57 1778.34 343.58 1778.16 343.09 Z" />
<path fill="#24668a" opacity="0.20" d=" M 1168.96 344.18 C 1170.68 344.57 1170.94 345.49 1169.74 346.94 C 1169.14 346.10 1168.88 345.18 1168.96 344.18 Z" />
<path fill="#24668a" opacity="0.20" d=" M 1280.29 348.88 C 1278.80 348.20 1279.01 344.85 1280.95 345.25 C 1280.92 346.48 1280.65 347.70 1280.29 348.88 Z" />
<path fill="#24668a" opacity="0.20" d=" M 1576.38 348.92 C 1574.88 348.27 1575.00 344.90 1576.93 345.24 C 1576.94 346.49 1576.70 347.72 1576.38 348.92 Z" />
<path fill="#24668a" opacity="0.20" d=" M 851.14 346.08 L 852.03 346.29 L 852.39 347.31 L 851.83 348.06 C 851.65 347.56 851.31 346.57 851.14 346.08 Z" />
<path fill="#24668a" opacity="0.20" d=" M 779.49 347.69 C 779.53 347.63 779.61 347.52 779.65 347.46 C 779.61 347.52 779.53 347.63 779.49 347.69 Z" />
<path fill="#24668a" opacity="0.20" d=" M 799.41 347.60 C 799.45 347.54 799.53 347.42 799.57 347.36 C 799.53 347.42 799.45 347.54 799.41 347.60 Z" />
<path fill="#24668a" opacity="0.20" d=" M 808.94 347.12 L 809.79 347.35 L 810.10 348.34 L 809.54 349.06 C 809.39 348.58 809.09 347.61 808.94 347.12 Z" />
<path fill="#24668a" opacity="0.20" d=" M 1779.13 347.08 L 1780.01 347.32 L 1780.33 348.35 L 1779.74 349.09 C 1779.59 348.58 1779.29 347.58 1779.13 347.08 Z" />
<path fill="#24668a" opacity="0.20" d=" M 581.32 352.91 C 579.94 352.18 580.02 348.85 581.91 349.15 C 581.98 350.42 581.70 351.68 581.32 352.91 Z" />
<path fill="#24668a" opacity="0.20" d=" M 655.37 349.61 C 655.40 349.55 655.48 349.44 655.52 349.38 C 655.48 349.44 655.40 349.55 655.37 349.61 Z" />
<path fill="#24668a" opacity="0.20" d=" M 777.50 350.65 C 777.54 350.60 777.62 350.48 777.66 350.42 C 777.62 350.48 777.54 350.60 777.50 350.65 Z" />
<path fill="#24668a" opacity="0.20" d=" M 797.35 350.63 C 797.40 350.57 797.48 350.45 797.52 350.39 C 797.48 350.45 797.40 350.57 797.35 350.63 Z" />
<path fill="#24668a" opacity="0.20" d=" M 851.92 350.15 C 853.64 350.53 853.91 351.44 852.74 352.89 C 852.11 352.07 851.84 351.16 851.92 350.15 Z" />
<path fill="#24668a" opacity="0.20" d=" M 974.10 353.77 C 974.05 352.51 974.28 351.28 974.64 350.09 C 976.10 350.72 976.00 354.09 974.10 353.77 Z" />
<path fill="#24668a" opacity="0.20" d=" M 1127.97 350.18 L 1128.86 350.32 C 1128.83 350.73 1128.78 351.56 1128.76 351.97 C 1128.49 351.70 1127.96 351.17 1127.70 350.90 L 1127.97 350.18 Z" />
<path fill="#24668a" opacity="0.20" d=" M 1704.53 351.64 C 1704.57 351.58 1704.65 351.47 1704.69 351.41 C 1704.65 351.47 1704.57 351.58 1704.53 351.64 Z" />
<path fill="#24668a" opacity="0.20" d=" M 1724.38 351.61 C 1724.42 351.55 1724.50 351.44 1724.53 351.38 C 1724.50 351.44 1724.42 351.55 1724.38 351.61 Z" />
<path fill="#24668a" opacity="0.20" d=" M 653.42 352.62 C 653.46 352.56 653.54 352.44 653.58 352.38 C 653.54 352.44 653.46 352.56 653.42 352.62 Z" />
<path fill="#24668a" opacity="0.20" d=" M 1094.52 352.65 C 1094.56 352.59 1094.64 352.47 1094.68 352.41 C 1094.64 352.47 1094.56 352.59 1094.52 352.65 Z" />
<path fill="#24668a" opacity="0.20" d=" M 1780.21 352.03 L 1781.09 352.24 L 1781.44 353.27 L 1780.89 354.02 C 1780.72 353.53 1780.38 352.53 1780.21 352.03 Z" />
<path fill="#24668a" opacity="0.20" d=" M 775.45 353.67 C 775.49 353.61 775.58 353.49 775.62 353.43 C 775.58 353.49 775.49 353.61 775.45 353.67 Z" />
<path fill="#24668a" opacity="0.20" d=" M 1171.12 353.08 L 1172.01 353.28 L 1172.38 354.29 L 1171.83 355.05 C 1171.65 354.56 1171.30 353.58 1171.12 353.08 Z" />
<path fill="#24668a" opacity="0.20" d=" M 1493.92 353.19 C 1495.66 353.55 1495.94 354.48 1494.79 355.97 C 1494.19 355.12 1493.90 354.20 1493.92 353.19 Z" />
<path fill="#24668a" opacity="0.20" d=" M 1702.49 354.68 C 1702.53 354.62 1702.61 354.51 1702.65 354.45 C 1702.61 354.51 1702.53 354.62 1702.49 354.68 Z" />
<path fill="#24668a" opacity="0.20" d=" M 1092.47 355.70 C 1092.51 355.64 1092.59 355.52 1092.62 355.46 C 1092.59 355.52 1092.51 355.64 1092.47 355.70 Z" />
<path fill="#24668a" opacity="0.20" d=" M 658.39 359.92 C 656.96 359.25 656.94 355.86 658.87 356.18 C 658.93 357.44 658.71 358.70 658.39 359.92 Z" />
<path fill="#24668a" opacity="0.20" d=" M 1781.21 356.01 L 1782.09 356.28 L 1782.38 357.33 L 1781.79 358.04 C 1781.65 357.53 1781.36 356.52 1781.21 356.01 Z" />
<path fill="#24668a" opacity="0.20" d=" M 580.37 360.92 C 578.93 360.26 578.97 356.90 580.87 357.23 C 580.96 358.48 580.72 359.72 580.37 360.92 Z" />
<path fill="#24668a" opacity="0.20" d=" M 935.34 360.94 C 933.91 360.23 933.98 356.87 935.91 357.20 C 935.92 358.47 935.68 359.72 935.34 360.94 Z" />
<path fill="#24668a" opacity="0.20" d=" M 1172.04 357.21 C 1173.75 357.58 1173.99 358.51 1172.75 359.98 C 1172.20 359.12 1171.97 358.20 1172.04 357.21 Z" />
<path fill="#24668a" opacity="0.20" d=" M 1611.13 361.77 C 1611.05 360.20 1611.26 358.65 1611.63 357.14 C 1612.97 358.06 1613.17 361.89 1611.13 361.77 Z" />
<path fill="#24668a" opacity="0.20" d=" M 1700.49 357.63 C 1700.53 357.57 1700.61 357.45 1700.65 357.39 C 1700.61 357.45 1700.53 357.57 1700.49 357.63 Z" />
<path fill="#24668a" opacity="0.20" d=" M 1278.32 360.96 C 1276.96 359.56 1277.14 358.61 1278.85 358.12 C 1278.94 359.11 1278.77 360.06 1278.32 360.96 Z" />
<path fill="#24668a" opacity="0.20" d=" M 1311.03 361.76 C 1310.99 360.51 1311.25 359.29 1311.66 358.12 C 1313.13 358.78 1312.90 362.08 1311.03 361.76 Z" />
<path fill="#24668a" opacity="0.20" d=" M 1428.13 357.86 C 1428.54 357.91 1429.36 357.99 1429.78 358.03 L 1429.85 358.91 C 1429.42 358.65 1428.56 358.13 1428.13 357.86 Z" />
<path fill="#24668a" opacity="0.20" d=" M 854.13 359.09 L 855.03 359.29 L 855.39 360.30 L 854.84 361.05 C 854.66 360.56 854.31 359.58 854.13 359.09 Z" />
<path fill="#24668a" opacity="0.20" d=" M 1574.36 363.90 C 1572.88 363.23 1572.99 359.85 1574.94 360.25 C 1574.95 361.49 1574.70 362.71 1574.36 363.90 Z" />
<path fill="#24668a" opacity="0.20" d=" M 1782.09 360.12 L 1782.97 360.33 L 1783.32 361.35 L 1782.75 362.11 C 1782.58 361.61 1782.25 360.62 1782.09 360.12 Z" />
<path fill="#24668a" opacity="0.20" d=" M 1088.44 361.66 C 1088.48 361.60 1088.56 361.49 1088.60 361.43 C 1088.56 361.49 1088.48 361.60 1088.44 361.66 Z" />
<path fill="#24668a" opacity="0.20" d=" M 1466.30 360.92 C 1466.51 361.40 1466.94 362.36 1467.16 362.84 L 1466.23 362.70 L 1465.79 361.71 L 1466.30 360.92 Z" />
<path fill="#24668a" opacity="0.20" d=" M 854.89 363.19 C 856.60 363.51 856.90 364.41 855.80 365.88 C 855.10 365.10 854.80 364.20 854.89 363.19 Z" />
<path fill="#24668a" opacity="0.20" d=" M 1494.02 365.83 C 1493.96 364.82 1494.21 363.90 1494.77 363.07 C 1496.00 364.50 1495.75 365.42 1494.02 365.83 Z" />
<path fill="#24668a" opacity="0.20" d=" M 1696.44 363.60 C 1696.48 363.54 1696.56 363.43 1696.60 363.37 C 1696.56 363.43 1696.48 363.54 1696.44 363.60 Z" />
<path fill="#24668a" opacity="0.20" d=" M 1309.90 367.70 C 1309.84 366.43 1310.27 365.24 1310.73 364.08 C 1312.09 364.85 1311.75 368.10 1309.90 367.70 Z" />
<path fill="#24668a" opacity="0.20" d=" M 579.38 368.94 C 577.95 368.25 577.98 364.89 579.90 365.19 C 579.95 366.46 579.71 367.71 579.38 368.94 Z" />
<path fill="#24668a" opacity="0.20" d=" M 1739.94 365.08 L 1740.69 365.13 C 1740.76 365.53 1740.89 366.31 1740.96 366.71 C 1740.62 366.51 1739.94 366.11 1739.60 365.91 L 1739.94 365.08 Z" />
<path fill="#24668a" opacity="0.20" d=" M 1783.23 365.01 L 1784.11 365.25 L 1784.44 366.28 L 1783.86 367.02 C 1783.71 366.52 1783.39 365.52 1783.23 365.01 Z" />
<path fill="#24668a" opacity="0.20" d=" M 1131.34 365.89 C 1131.53 366.39 1131.91 367.37 1132.10 367.87 L 1131.20 367.68 L 1130.81 366.67 L 1131.34 365.89 Z" />
<path fill="#24668a" opacity="0.20" d=" M 1174.09 366.09 L 1174.99 366.28 L 1175.37 367.29 L 1174.82 368.05 C 1174.64 367.56 1174.27 366.58 1174.09 366.09 Z" />
<path fill="#24668a" opacity="0.20" d=" M 1424.34 367.14 C 1424.76 369.32 1424.90 371.55 1424.76 373.78 C 1422.60 372.99 1423.17 368.78 1424.34 367.14 Z" />
<path fill="#24668a" opacity="0.20" d=" M 1610.14 370.81 C 1610.01 369.53 1610.25 368.28 1610.61 367.07 C 1611.98 367.73 1612.03 371.13 1610.14 370.81 Z" />
<path fill="#24668a" opacity="0.20" d=" M 856.19 368.04 L 857.07 368.24 L 857.43 369.25 L 856.89 370.01 C 856.71 369.52 856.36 368.53 856.19 368.04 Z" />
<path fill="#24668a" opacity="0.20" d=" M 1573.34 371.86 C 1571.89 371.20 1571.93 367.81 1573.86 368.17 C 1573.92 369.42 1573.67 370.66 1573.34 371.86 Z" />
<path fill="#24668a" opacity="0.20" d=" M 1741.07 367.96 C 1741.28 368.44 1741.70 369.40 1741.91 369.89 L 1741.00 369.73 L 1740.57 368.74 L 1741.07 367.96 Z" />
<path fill="#24668a" opacity="0.20" d=" M 592.09 372.79 C 592.03 371.53 592.29 370.30 592.65 369.11 C 594.08 369.76 594.00 373.16 592.09 372.79 Z" />
<path fill="#24668a" opacity="0.20" d=" M 1784.20 369.04 L 1785.07 369.28 L 1785.39 370.31 L 1784.81 371.05 C 1784.66 370.54 1784.35 369.54 1784.20 369.04 Z" />
<path fill="#24668a" opacity="0.20" d=" M 1174.89 370.17 C 1176.58 370.52 1176.89 371.43 1175.79 372.91 C 1175.10 372.10 1174.80 371.19 1174.89 370.17 Z" />
<path fill="#24668a" opacity="0.20" d=" M 1276.28 372.94 C 1275.05 371.47 1275.30 370.54 1277.03 370.14 C 1277.08 371.15 1276.83 372.08 1276.28 372.94 Z" />
<path fill="#24668a" opacity="0.20" d=" M 857.13 372.06 L 858.01 372.28 L 858.35 373.31 L 857.78 374.06 C 857.62 373.56 857.29 372.56 857.13 372.06 Z" />
<path fill="#24668a" opacity="0.20" d=" M 933.35 375.92 C 931.92 375.22 932.00 371.86 933.93 372.19 C 933.94 373.45 933.70 374.70 933.35 375.92 Z" />
<path fill="#24668a" opacity="0.20" d=" M 656.40 376.92 C 654.93 376.28 654.94 372.91 656.86 373.19 C 656.92 374.45 656.72 375.70 656.40 376.92 Z" />
<path fill="#24668a" opacity="0.20" d=" M 1133.25 372.85 C 1133.41 373.35 1133.74 374.35 1133.90 374.85 L 1133.02 374.63 L 1132.68 373.60 L 1133.25 372.85 Z" />
<path fill="#24668a" opacity="0.20" d=" M 1785.08 373.14 L 1785.96 373.34 L 1786.32 374.36 L 1785.77 375.12 C 1785.59 374.62 1785.25 373.64 1785.08 373.14 Z" />
<path fill="#24668a" opacity="0.20" d=" M 639.34 374.59 C 639.38 374.53 639.46 374.41 639.49 374.35 C 639.46 374.41 639.38 374.53 639.34 374.59 Z" />
<path fill="#24668a" opacity="0.20" d=" M 815.21 373.97 C 815.39 374.46 815.74 375.45 815.91 375.94 L 815.00 375.74 L 814.64 374.72 L 815.21 373.97 Z" />
<path fill="#24668a" opacity="0.20" d=" M 760.51 375.66 C 760.55 375.60 760.64 375.48 760.68 375.42 C 760.64 375.48 760.55 375.60 760.51 375.66 Z" />
<path fill="#24668a" opacity="0.20" d=" M 1176.20 375.05 L 1177.08 375.26 L 1177.43 376.28 L 1176.88 377.04 C 1176.71 376.54 1176.37 375.55 1176.20 375.05 Z" />
<path fill="#24668a" opacity="0.20" d=" M 1449.88 375.28 L 1450.63 374.68 L 1451.67 375.03 L 1451.88 375.94 C 1451.38 375.78 1450.38 375.44 1449.88 375.28 Z" />
<path fill="#24668a" opacity="0.20" d=" M 1743.20 374.91 C 1743.38 375.40 1743.73 376.39 1743.91 376.88 L 1743.00 376.68 L 1742.64 375.66 L 1743.20 374.91 Z" />
<path fill="#24668a" opacity="0.20" d=" M 858.01 376.19 C 859.73 376.56 859.98 377.48 858.78 378.96 C 858.20 378.12 857.94 377.19 858.01 376.19 Z" />
<path fill="#24668a" opacity="0.20" d=" M 1134.03 376.00 C 1134.25 376.47 1134.69 377.43 1134.91 377.90 L 1134.00 377.76 L 1133.55 376.78 L 1134.03 376.00 Z" />
<path fill="#24668a" opacity="0.20" d=" M 1275.27 379.86 C 1273.82 379.16 1274.02 375.85 1275.92 376.24 C 1275.95 377.48 1275.67 378.69 1275.27 379.86 Z" />
<path fill="#24668a" opacity="0.20" d=" M 1609.09 380.73 C 1609.04 379.17 1609.26 377.62 1609.63 376.11 C 1610.99 377.05 1611.15 380.83 1609.09 380.73 Z" />
<path fill="#24668a" opacity="0.20" d=" M 637.40 377.60 C 637.44 377.54 637.52 377.42 637.55 377.36 C 637.52 377.42 637.44 377.54 637.40 377.60 Z" />
<path fill="#24668a" opacity="0.20" d=" M 689.16 382.75 C 689.09 380.86 689.31 378.97 689.67 377.12 C 690.89 378.42 691.36 382.49 689.16 382.75 Z" />
<path fill="#24668a" opacity="0.20" d=" M 1706.38 377.59 C 1706.42 377.53 1706.50 377.42 1706.54 377.36 C 1706.50 377.42 1706.42 377.53 1706.38 377.59 Z" />
<path fill="#24668a" opacity="0.20" d=" M 758.48 378.69 C 758.52 378.63 758.60 378.51 758.64 378.45 C 758.60 378.51 758.52 378.63 758.48 378.69 Z" />
<path fill="#24668a" opacity="0.20" d=" M 1786.21 378.02 L 1787.10 378.24 L 1787.44 379.26 L 1786.88 380.01 C 1786.72 379.51 1786.38 378.52 1786.21 378.02 Z" />
<path fill="#24668a" opacity="0.20" d=" M 1177.13 379.03 L 1178.01 379.28 L 1178.32 380.32 L 1177.71 381.04 C 1177.56 380.54 1177.28 379.53 1177.13 379.03 Z" />
<path fill="#24668a" opacity="0.20" d=" M 1430.46 379.37 C 1430.51 379.40 1430.63 379.47 1430.69 379.51 C 1430.63 379.47 1430.51 379.40 1430.46 379.37 Z" />
<path fill="#24668a" opacity="0.20" d=" M 1685.49 379.69 C 1685.53 379.63 1685.61 379.51 1685.65 379.45 C 1685.61 379.51 1685.53 379.63 1685.49 379.69 Z" />
<path fill="#24668a" opacity="0.20" d=" M 1075.49 380.68 C 1075.53 380.62 1075.61 380.51 1075.65 380.45 C 1075.61 380.51 1075.53 380.62 1075.49 380.68 Z" />
<path fill="#24668a" opacity="0.20" d=" M 756.46 381.63 C 756.50 381.57 756.58 381.45 756.62 381.39 C 756.58 381.45 756.50 381.57 756.46 381.63 Z" />
<path fill="#24668a" opacity="0.20" d=" M 817.20 380.94 C 817.38 381.43 817.76 382.40 817.94 382.89 L 817.03 382.72 L 816.64 381.71 L 817.20 380.94 Z" />
<path fill="#24668a" opacity="0.20" d=" M 859.21 381.03 L 860.09 381.25 L 860.41 382.28 L 859.81 383.03 C 859.66 382.53 859.36 381.53 859.21 381.03 Z" />
<path fill="#24668a" opacity="0.20" d=" M 1434.45 381.38 C 1434.51 381.41 1434.64 381.47 1434.71 381.50 C 1434.64 381.47 1434.51 381.41 1434.45 381.38 Z" />
<path fill="#24668a" opacity="0.20" d=" M 1274.10 385.68 C 1274.21 384.32 1274.38 382.95 1274.81 381.65 C 1274.71 382.56 1274.51 384.38 1274.41 385.29 C 1285.29 385.27 1296.18 385.33 1307.06 385.26 C 1307.29 384.09 1307.52 382.93 1307.77 381.77 C 1307.66 383.01 1307.58 384.25 1307.52 385.49 C 1296.39 385.99 1285.23 385.63 1274.10 385.68 Z" />
<path fill="#24668a" opacity="0.20" d=" M 1683.48 382.71 C 1683.52 382.65 1683.60 382.52 1683.64 382.46 C 1683.60 382.52 1683.52 382.65 1683.48 382.71 Z" />
<path fill="#24668a" opacity="0.20" d=" M 1745.24 381.90 C 1745.40 382.40 1745.71 383.40 1745.87 383.90 L 1744.98 383.66 L 1744.65 382.64 L 1745.24 381.90 Z" />
<path fill="#24668a" opacity="0.20" d=" M 1787.18 382.01 L 1788.05 382.24 L 1788.33 383.30 L 1787.72 384.06 C 1787.59 383.54 1787.32 382.52 1787.18 382.01 Z" />
<path fill="#24668a" opacity="0.20" d=" M 1073.50 383.70 C 1073.54 383.64 1073.61 383.52 1073.65 383.46 C 1073.61 383.52 1073.54 383.64 1073.50 383.70 Z" />
<path fill="#24668a" opacity="0.20" d=" M 1439.17 383.06 C 1439.65 383.25 1440.63 383.64 1441.11 383.83 L 1440.34 384.36 L 1439.34 383.96 L 1439.17 383.06 Z" />
<path fill="#24668a" opacity="0.20" d=" M 1443.11 384.15 C 1443.60 384.32 1444.60 384.65 1445.10 384.82 L 1444.36 385.38 L 1443.34 385.03 L 1443.11 384.15 Z" />
<path fill="#24668a" opacity="0.20" d=" M 1447.20 385.05 C 1448.18 384.98 1449.11 385.19 1450.00 385.69 C 1448.55 386.98 1447.61 386.77 1447.20 385.05 Z" />
<path fill="#24668a" opacity="0.20" d=" M 1467.16 386.72 C 1468.63 386.34 1470.15 386.00 1471.72 385.92 C 1471.83 388.03 1468.15 388.11 1467.16 386.72 Z" />
</g>
<g id="#000000ff">
<path fill="#000000" opacity="1.00" d=" M 1455.95 284.26 C 1456.62 284.12 1457.97 283.85 1458.64 283.71 C 1461.51 283.67 1464.38 283.67 1467.27 283.73 C 1467.97 283.86 1469.37 284.10 1470.07 284.22 C 1470.86 284.81 1471.78 285.11 1472.81 285.10 C 1480.11 286.28 1486.50 290.56 1492.39 294.83 C 1492.23 299.63 1492.23 304.44 1492.36 309.25 L 1490.72 309.14 C 1490.12 309.12 1488.91 309.07 1488.30 309.04 C 1484.57 308.64 1484.39 304.20 1481.89 302.20 C 1477.34 298.05 1471.25 294.55 1464.88 296.06 C 1464.38 296.22 1463.37 296.56 1462.87 296.72 C 1459.34 298.26 1455.76 300.46 1454.35 304.25 C 1452.26 308.98 1455.52 313.96 1459.13 316.89 C 1469.17 325.05 1480.27 332.20 1488.43 342.41 C 1488.47 342.47 1488.55 342.58 1488.60 342.63 C 1490.80 345.88 1493.24 349.24 1493.92 353.19 C 1493.90 354.20 1494.19 355.12 1494.79 355.97 C 1495.23 358.30 1495.22 360.73 1494.77 363.07 C 1494.21 363.90 1493.96 364.82 1494.02 365.83 C 1491.26 376.01 1482.36 384.63 1471.72 385.92 C 1470.15 386.00 1468.63 386.34 1467.16 386.72 C 1461.43 387.24 1455.64 386.71 1450.00 385.69 C 1449.11 385.19 1448.18 384.98 1447.20 385.05 C 1446.68 385.00 1445.63 384.88 1445.10 384.82 C 1444.60 384.65 1443.60 384.32 1443.11 384.15 C 1442.61 384.07 1441.61 383.91 1441.11 383.83 C 1440.63 383.64 1439.65 383.25 1439.17 383.06 C 1437.62 382.68 1436.15 382.08 1434.71 381.50 C 1434.64 381.47 1434.51 381.41 1434.45 381.38 C 1433.15 380.80 1431.90 380.17 1430.69 379.51 C 1430.63 379.47 1430.51 379.40 1430.46 379.37 C 1428.31 377.82 1425.51 376.53 1424.76 373.78 C 1424.90 371.55 1424.76 369.32 1424.34 367.14 C 1424.01 364.64 1423.93 362.12 1423.70 359.62 C 1425.03 358.71 1426.54 358.21 1428.13 357.86 C 1428.56 358.13 1429.42 358.65 1429.85 358.91 C 1431.40 359.39 1431.84 361.10 1432.64 362.34 C 1436.15 368.93 1442.80 373.31 1449.88 375.28 C 1450.38 375.44 1451.38 375.78 1451.88 375.94 C 1455.96 376.44 1460.71 377.16 1464.10 374.19 C 1467.79 371.69 1467.54 366.76 1467.16 362.84 C 1466.94 362.36 1466.51 361.40 1466.30 360.92 C 1463.36 354.44 1457.03 350.75 1452.36 345.68 C 1444.97 338.02 1435.87 331.14 1432.49 320.60 C 1432.47 320.53 1432.42 320.39 1432.40 320.33 C 1432.25 319.74 1431.95 318.58 1431.80 317.99 C 1431.65 317.49 1431.35 316.49 1431.20 315.99 C 1430.21 310.19 1430.58 303.92 1433.49 298.69 C 1433.53 298.64 1433.59 298.52 1433.63 298.46 C 1437.14 292.26 1443.48 288.08 1450.11 285.85 C 1450.60 285.66 1451.58 285.26 1452.06 285.07 L 1453.17 284.93 C 1454.14 285.00 1455.07 284.77 1455.95 284.26 Z" />
<path fill="#000000" opacity="1.00" d=" M 589.72 285.10 C 599.51 285.16 609.30 285.10 619.09 285.13 C 625.01 298.77 631.00 312.38 636.95 326.01 C 637.96 328.41 639.27 330.72 639.82 333.30 C 639.92 334.47 640.54 335.02 641.68 334.93 L 642.00 334.24 C 644.93 328.60 648.38 323.23 651.52 317.70 C 651.55 317.64 651.63 317.52 651.66 317.45 C 653.59 314.18 655.53 310.91 657.41 307.61 C 657.45 307.55 657.52 307.43 657.56 307.36 L 658.48 305.77 C 658.51 305.71 658.59 305.59 658.62 305.52 C 661.98 299.96 665.22 294.33 668.48 288.72 C 668.52 288.66 668.59 288.53 668.63 288.47 C 669.30 287.32 670.01 286.19 670.71 285.05 C 679.85 285.23 688.99 285.06 698.13 285.14 C 698.02 285.64 697.78 286.65 697.67 287.16 C 697.17 288.97 697.10 290.86 697.16 292.74 C 697.15 294.54 696.96 296.35 696.68 298.13 C 696.28 299.98 696.09 301.87 696.15 303.77 C 694.18 328.23 691.95 352.69 689.67 377.12 C 689.31 378.97 689.09 380.86 689.16 382.75 C 689.15 383.30 689.13 384.40 689.13 384.96 C 677.87 385.34 666.61 385.03 655.35 385.11 C 655.66 382.38 655.88 379.62 656.40 376.92 C 656.72 375.70 656.92 374.45 656.86 373.19 C 657.14 368.75 657.73 364.32 658.39 359.92 C 658.71 358.70 658.93 357.44 658.87 356.18 C 659.03 351.76 659.94 347.41 660.24 343.00 C 657.91 344.42 657.09 347.27 655.52 349.38 C 655.48 349.44 655.40 349.55 655.37 349.61 C 654.92 350.30 654.02 351.68 653.58 352.38 C 653.54 352.44 653.46 352.56 653.42 352.62 C 648.73 359.83 644.11 367.09 639.49 374.35 C 639.46 374.41 639.38 374.53 639.34 374.59 C 638.89 375.28 638.00 376.66 637.55 377.36 C 637.52 377.42 637.44 377.54 637.40 377.60 C 635.71 380.23 634.08 382.92 632.20 385.43 C 627.63 385.36 623.06 385.26 618.50 385.53 C 611.30 372.21 604.87 358.47 598.01 344.97 C 597.56 344.04 596.91 343.30 596.06 342.74 C 595.15 351.55 593.93 360.34 592.65 369.11 C 592.29 370.30 592.03 371.53 592.09 372.79 C 591.56 376.84 591.71 381.29 590.23 385.06 C 585.94 385.25 581.65 385.06 577.37 385.13 C 578.01 379.73 578.50 374.30 579.38 368.94 C 579.71 367.71 579.95 366.46 579.90 365.19 C 579.90 363.74 580.06 362.32 580.37 360.92 C 580.72 359.72 580.96 358.48 580.87 357.23 C 580.84 355.76 580.99 354.32 581.32 352.91 C 581.70 351.68 581.98 350.42 581.91 349.15 C 581.90 347.71 582.05 346.30 582.35 344.91 C 582.69 343.69 582.93 342.44 582.87 341.17 C 583.74 331.70 585.05 322.25 586.33 312.82 C 586.68 311.33 586.89 309.81 586.89 308.28 C 586.99 307.42 587.19 305.71 587.29 304.85 C 587.66 303.34 588.00 301.81 588.01 300.26 C 588.22 296.13 588.70 292.01 589.33 287.93 C 589.91 287.02 590.04 286.08 589.72 285.10 Z" />
<path fill="#000000" opacity="1.00" d=" M 817.66 291.44 C 819.09 289.34 820.54 287.25 821.97 285.15 C 827.04 285.10 832.11 285.14 837.19 285.12 C 837.31 285.61 837.55 286.60 837.67 287.09 C 838.26 289.38 838.79 291.70 839.16 294.05 C 839.33 294.54 839.68 295.54 839.85 296.03 C 839.93 296.53 840.08 297.54 840.16 298.05 C 840.28 298.56 840.53 299.57 840.66 300.08 C 841.25 302.38 841.79 304.70 842.16 307.05 C 842.34 307.55 842.69 308.54 842.86 309.04 C 842.91 309.56 843.00 310.60 843.04 311.12 C 843.22 311.61 843.58 312.59 843.75 313.08 C 843.87 313.82 844.11 315.31 844.22 316.05 C 844.39 316.55 844.72 317.55 844.89 318.05 C 844.96 318.55 845.12 319.56 845.20 320.06 C 845.35 320.56 845.67 321.57 845.83 322.07 C 845.89 322.58 846.00 323.60 846.06 324.11 C 846.23 324.61 846.57 325.60 846.74 326.10 C 846.86 326.83 847.11 328.31 847.23 329.05 C 847.39 329.55 847.72 330.55 847.88 331.05 C 847.96 331.55 848.12 332.56 848.19 333.06 C 848.35 333.56 848.67 334.56 848.83 335.06 C 848.85 335.59 848.90 336.64 848.92 337.17 C 848.84 338.17 849.12 339.09 849.74 339.92 C 850.36 341.93 850.85 343.99 851.14 346.08 C 851.31 346.57 851.65 347.56 851.83 348.06 C 851.85 348.58 851.89 349.63 851.92 350.15 C 851.84 351.16 852.11 352.07 852.74 352.89 C 853.35 354.91 853.85 356.98 854.13 359.09 C 854.31 359.58 854.66 360.56 854.84 361.05 C 854.86 361.59 854.88 362.66 854.89 363.19 C 854.80 364.20 855.10 365.10 855.80 365.88 C 855.89 366.42 856.09 367.50 856.19 368.04 C 856.36 368.53 856.71 369.52 856.89 370.01 C 856.95 370.52 857.07 371.55 857.13 372.06 C 857.29 372.56 857.62 373.56 857.78 374.06 C 857.84 374.59 857.95 375.66 858.01 376.19 C 857.94 377.19 858.20 378.12 858.78 378.96 C 858.89 379.48 859.10 380.51 859.21 381.03 C 859.36 381.53 859.66 382.53 859.81 383.03 C 859.88 383.53 860.01 384.53 860.08 385.03 C 846.23 385.27 832.37 385.01 818.51 385.17 C 818.37 384.60 818.08 383.46 817.94 382.89 C 817.76 382.40 817.38 381.43 817.20 380.94 C 816.66 379.30 816.22 377.63 815.91 375.94 C 815.74 375.45 815.39 374.46 815.21 373.97 C 814.29 371.04 813.54 368.07 812.76 365.10 C 804.26 364.67 795.73 364.84 787.22 365.01 C 782.88 371.69 778.25 378.20 773.63 384.69 C 767.33 385.72 760.66 384.84 754.23 385.11 C 754.96 383.94 755.70 382.78 756.46 381.63 C 756.50 381.57 756.58 381.45 756.62 381.39 C 757.09 380.72 758.02 379.36 758.48 378.69 C 758.52 378.63 758.60 378.51 758.64 378.45 C 759.11 377.75 760.05 376.36 760.51 375.66 C 760.55 375.60 760.64 375.48 760.68 375.42 C 765.64 368.20 770.56 360.94 775.45 353.67 C 775.49 353.61 775.58 353.49 775.62 353.43 C 776.09 352.73 777.03 351.35 777.50 350.65 C 777.54 350.60 777.62 350.48 777.66 350.42 C 778.12 349.74 779.03 348.37 779.49 347.69 C 779.53 347.63 779.61 347.52 779.65 347.46 C 784.62 340.23 789.54 332.97 794.43 325.70 C 794.47 325.64 794.55 325.52 794.59 325.46 C 795.07 324.76 796.03 323.35 796.50 322.65 C 796.54 322.59 796.63 322.47 796.67 322.41 C 797.12 321.73 798.03 320.38 798.48 319.70 C 798.52 319.65 798.60 319.53 798.64 319.47 C 802.97 313.24 807.15 306.90 811.45 300.64 C 811.49 300.58 811.57 300.46 811.62 300.40 C 812.92 298.48 814.22 296.55 815.52 294.62 C 815.56 294.56 815.64 294.44 815.68 294.38 C 816.13 293.71 817.05 292.35 817.50 291.67 C 817.54 291.61 817.62 291.50 817.66 291.44 M 799.57 347.36 C 799.53 347.42 799.45 347.54 799.41 347.60 C 798.94 348.30 797.99 349.69 797.52 350.39 C 797.48 350.45 797.40 350.57 797.35 350.63 C 796.12 352.30 794.90 353.98 793.94 355.83 C 799.72 355.93 805.50 355.85 811.28 355.88 C 810.76 353.60 810.62 351.17 809.54 349.06 L 810.10 348.34 L 809.79 347.35 L 808.94 347.12 L 809.27 345.87 L 808.63 344.96 C 809.68 343.57 809.39 342.68 807.77 342.29 C 808.15 340.48 807.32 338.69 807.01 336.96 C 804.07 340.07 802.09 343.93 799.57 347.36 Z" />
<path fill="#000000" opacity="1.00" d=" M 945.22 285.14 C 957.91 285.12 970.61 285.11 983.31 285.15 C 983.25 285.54 983.12 286.33 983.06 286.72 C 981.29 302.87 978.92 318.98 976.67 335.08 C 976.30 336.29 976.06 337.55 976.11 338.83 C 975.84 342.60 975.34 346.37 974.64 350.09 C 974.28 351.28 974.05 352.51 974.10 353.77 C 973.50 361.01 972.15 368.17 971.38 375.39 C 984.21 375.30 997.04 375.50 1009.87 375.29 C 1009.88 378.54 1009.56 381.78 1009.23 385.01 C 983.51 385.27 957.78 385.06 932.05 385.12 C 932.47 382.05 932.72 378.95 933.35 375.92 C 933.70 374.70 933.94 373.45 933.93 372.19 C 934.18 368.42 934.66 364.66 935.34 360.94 C 935.68 359.72 935.92 358.47 935.91 357.20 C 936.18 353.41 936.64 349.63 937.36 345.90 C 937.70 344.70 937.93 343.46 937.89 342.22 C 937.99 341.37 938.19 339.67 938.30 338.83 C 938.67 337.34 938.90 335.81 938.89 334.27 C 939.00 333.42 939.21 331.72 939.31 330.87 C 939.66 329.67 939.93 328.43 939.90 327.18 C 940.16 323.40 940.64 319.63 941.34 315.91 C 941.68 314.68 941.91 313.43 941.86 312.16 C 941.88 310.72 942.05 309.31 942.37 307.91 C 942.72 306.71 942.95 305.48 942.93 304.24 C 943.20 300.45 943.69 296.68 944.37 292.95 C 944.70 291.74 944.96 290.50 944.94 289.24 C 945.00 287.87 945.09 286.50 945.22 285.14 Z" />
<path fill="#000000" opacity="1.00" d=" M 1140.26 285.15 C 1145.44 285.10 1150.62 285.11 1155.81 285.16 C 1155.89 285.89 1156.06 287.35 1156.14 288.09 C 1156.32 288.58 1156.68 289.58 1156.86 290.07 C 1156.93 290.58 1157.08 291.59 1157.15 292.09 C 1157.28 292.60 1157.54 293.62 1157.67 294.13 C 1158.25 296.42 1158.80 298.73 1159.17 301.06 C 1159.34 301.56 1159.68 302.56 1159.85 303.05 C 1159.92 303.57 1160.06 304.59 1160.13 305.10 C 1160.28 305.61 1160.59 306.61 1160.74 307.12 C 1160.86 307.85 1161.10 309.31 1161.21 310.04 C 1161.39 310.54 1161.73 311.53 1161.90 312.03 C 1161.97 312.53 1162.11 313.54 1162.18 314.05 C 1162.34 314.55 1162.67 315.54 1162.83 316.04 C 1162.89 316.56 1163.02 317.58 1163.08 318.10 C 1163.24 318.59 1163.57 319.58 1163.74 320.08 C 1163.86 320.82 1164.10 322.30 1164.22 323.04 C 1164.39 323.54 1164.72 324.53 1164.88 325.03 C 1164.96 325.54 1165.12 326.54 1165.19 327.05 C 1165.35 327.55 1165.66 328.56 1165.81 329.06 C 1165.89 329.58 1166.04 330.62 1166.12 331.13 C 1166.26 331.64 1166.54 332.65 1166.68 333.15 C 1167.25 335.45 1167.76 337.77 1168.13 340.12 C 1168.31 340.61 1168.66 341.60 1168.83 342.10 C 1168.86 342.62 1168.93 343.66 1168.96 344.18 C 1168.88 345.18 1169.14 346.10 1169.74 346.94 C 1170.35 348.94 1170.85 351.00 1171.12 353.08 C 1171.30 353.58 1171.65 354.56 1171.83 355.05 C 1171.88 355.59 1171.99 356.67 1172.04 357.21 C 1171.97 358.20 1172.20 359.12 1172.75 359.98 C 1173.35 361.97 1173.84 364.02 1174.09 366.09 C 1174.27 366.58 1174.64 367.56 1174.82 368.05 C 1174.84 368.58 1174.87 369.64 1174.89 370.17 C 1174.80 371.19 1175.10 372.10 1175.79 372.91 C 1175.90 373.44 1176.10 374.51 1176.20 375.05 C 1176.37 375.55 1176.71 376.54 1176.88 377.04 C 1176.94 377.54 1177.07 378.53 1177.13 379.03 C 1177.28 379.53 1177.56 380.54 1177.71 381.04 C 1178.00 382.39 1178.27 383.75 1178.52 385.12 C 1164.62 385.01 1150.70 385.36 1136.81 384.94 C 1136.14 382.60 1135.35 380.29 1134.91 377.90 C 1134.69 377.43 1134.25 376.47 1134.03 376.00 L 1133.90 374.85 C 1133.74 374.35 1133.41 373.35 1133.25 372.85 C 1132.68 371.23 1132.24 369.56 1132.10 367.87 C 1131.91 367.37 1131.53 366.39 1131.34 365.89 C 1131.08 365.64 1130.55 365.12 1130.29 364.86 C 1122.16 364.87 1114.04 364.90 1105.92 364.85 C 1101.16 371.41 1096.79 378.26 1091.93 384.75 C 1085.63 385.57 1079.09 385.03 1072.71 384.98 L 1073.50 383.70 C 1073.54 383.64 1073.61 383.52 1073.65 383.46 C 1074.11 382.77 1075.03 381.38 1075.49 380.68 C 1075.53 380.62 1075.61 380.51 1075.65 380.45 C 1079.96 374.22 1084.16 367.91 1088.44 361.66 C 1088.48 361.60 1088.56 361.49 1088.60 361.43 C 1089.89 359.52 1091.17 357.61 1092.47 355.70 C 1092.51 355.64 1092.59 355.52 1092.62 355.46 C 1093.10 354.76 1094.05 353.35 1094.52 352.65 C 1094.56 352.59 1094.64 352.47 1094.68 352.41 C 1098.97 346.19 1103.17 339.90 1107.43 333.65 C 1107.47 333.60 1107.55 333.48 1107.59 333.42 C 1108.90 331.52 1110.18 329.59 1111.47 327.66 C 1111.51 327.60 1111.58 327.49 1111.62 327.43 C 1112.09 326.74 1113.04 325.35 1113.51 324.66 C 1113.54 324.60 1113.62 324.48 1113.66 324.43 C 1114.12 323.74 1115.04 322.38 1115.49 321.70 C 1115.53 321.64 1115.61 321.52 1115.65 321.47 C 1119.31 316.24 1122.84 310.91 1126.44 305.64 C 1126.48 305.58 1126.57 305.46 1126.61 305.40 C 1127.90 303.51 1129.17 301.60 1130.45 299.69 C 1130.49 299.63 1130.56 299.51 1130.60 299.46 C 1131.08 298.76 1132.03 297.36 1132.50 296.66 C 1132.54 296.60 1132.62 296.48 1132.66 296.42 C 1133.12 295.74 1134.04 294.37 1134.50 293.69 C 1134.54 293.63 1134.62 293.51 1134.66 293.45 C 1136.58 290.72 1138.46 287.96 1140.26 285.15 M 1124.23 338.24 C 1120.34 343.58 1116.83 349.20 1112.95 354.56 C 1112.42 355.03 1112.43 355.69 1112.72 356.29 C 1118.35 355.40 1124.07 356.14 1129.74 355.79 C 1129.43 354.51 1129.14 353.21 1128.76 351.97 C 1128.78 351.56 1128.83 350.73 1128.86 350.32 L 1127.97 350.18 C 1128.45 347.77 1127.28 345.32 1126.65 343.01 C 1126.68 342.59 1126.74 341.76 1126.77 341.34 L 1125.90 341.19 C 1126.79 340.05 1125.94 337.07 1124.23 338.24 Z" />
<path fill="#000000" opacity="1.00" d=" M 1253.91 285.04 C 1266.14 285.29 1278.37 284.95 1290.59 285.22 C 1296.63 298.07 1303.12 310.70 1309.35 323.46 C 1309.38 323.52 1309.45 323.65 1309.48 323.72 L 1310.23 325.15 C 1310.54 324.78 1311.16 324.05 1311.48 323.69 C 1311.52 323.63 1311.62 323.51 1311.66 323.45 C 1312.12 322.75 1313.05 321.35 1313.51 320.66 C 1313.55 320.60 1313.62 320.48 1313.66 320.42 C 1317.98 313.89 1322.23 307.31 1326.50 300.74 C 1326.54 300.68 1326.62 300.56 1326.66 300.50 C 1327.12 299.79 1328.04 298.37 1328.51 297.66 C 1328.55 297.60 1328.63 297.48 1328.67 297.42 C 1329.12 296.74 1330.03 295.36 1330.49 294.67 C 1330.53 294.62 1330.60 294.50 1330.64 294.44 C 1331.91 292.50 1333.20 290.57 1334.45 288.61 C 1334.49 288.55 1334.56 288.42 1334.60 288.36 C 1335.22 287.33 1335.84 286.30 1336.46 285.26 C 1341.76 284.99 1347.08 285.18 1352.41 285.12 L 1351.55 286.37 C 1351.51 286.42 1351.43 286.54 1351.39 286.60 C 1349.10 289.86 1346.80 293.11 1344.53 296.39 C 1344.49 296.44 1344.41 296.56 1344.37 296.62 C 1335.12 309.72 1325.97 322.91 1316.70 336.01 C 1315.87 337.18 1315.05 338.42 1314.85 339.88 C 1313.74 345.95 1312.98 352.09 1311.66 358.12 C 1311.25 359.29 1310.99 360.51 1311.03 361.76 C 1310.95 362.34 1310.81 363.50 1310.73 364.08 C 1310.27 365.24 1309.84 366.43 1309.90 367.70 C 1309.58 372.44 1308.46 377.08 1307.77 381.77 C 1307.52 382.93 1307.29 384.09 1307.06 385.26 C 1296.18 385.33 1285.29 385.27 1274.41 385.29 C 1274.51 384.38 1274.71 382.56 1274.81 381.65 C 1274.92 381.20 1275.15 380.31 1275.27 379.86 C 1275.67 378.69 1275.95 377.48 1275.92 376.24 C 1276.01 375.41 1276.19 373.76 1276.28 372.94 C 1276.83 372.08 1277.08 371.15 1277.03 370.14 C 1277.13 367.04 1277.64 363.97 1278.32 360.96 C 1278.77 360.06 1278.94 359.11 1278.85 358.12 C 1279.10 355.01 1279.62 351.92 1280.29 348.88 C 1280.65 347.70 1280.92 346.48 1280.95 345.25 C 1280.91 342.23 1282.73 338.95 1280.89 336.17 C 1271.83 319.16 1263.18 301.94 1253.91 285.04 Z" />
<path fill="#000000" opacity="1.00" d=" M 1584.78 285.14 C 1596.31 285.08 1607.84 285.18 1619.38 285.09 C 1619.14 287.09 1618.96 289.11 1618.63 291.10 C 1618.26 292.63 1618.06 294.20 1618.13 295.78 C 1618.09 297.56 1617.93 299.34 1617.60 301.10 C 1617.25 302.30 1617.02 303.53 1617.12 304.79 C 1616.82 309.58 1616.38 314.37 1615.67 319.11 C 1615.29 320.64 1615.07 322.21 1615.16 323.80 C 1615.12 325.57 1614.94 327.36 1614.63 329.11 C 1614.25 330.60 1614.03 332.14 1614.11 333.68 C 1614.07 335.17 1613.92 336.65 1613.66 338.11 C 1613.27 339.62 1613.07 341.17 1613.13 342.74 C 1612.84 347.56 1612.29 352.36 1611.63 357.14 C 1611.26 358.65 1611.05 360.20 1611.13 361.77 C 1611.10 363.54 1610.95 365.32 1610.61 367.07 C 1610.25 368.28 1610.01 369.53 1610.14 370.81 C 1610.11 372.58 1609.93 374.36 1609.63 376.11 C 1609.26 377.62 1609.04 379.17 1609.09 380.73 C 1609.00 382.19 1608.92 383.66 1608.82 385.13 C 1596.41 385.12 1584.00 385.11 1571.60 385.14 C 1572.06 380.70 1572.53 376.25 1573.34 371.86 C 1573.67 370.66 1573.92 369.42 1573.86 368.17 C 1573.84 366.72 1574.00 365.30 1574.36 363.90 C 1574.70 362.71 1574.95 361.49 1574.94 360.25 C 1575.19 356.45 1575.68 352.67 1576.38 348.92 C 1576.70 347.72 1576.94 346.49 1576.93 345.24 C 1577.18 341.44 1577.64 337.65 1578.36 333.91 C 1578.70 332.70 1578.93 331.46 1578.92 330.20 C 1579.18 326.42 1579.65 322.66 1580.35 318.94 C 1580.69 317.74 1580.93 316.50 1580.91 315.25 C 1581.16 311.45 1581.64 307.66 1582.35 303.92 C 1582.68 302.70 1582.91 301.46 1582.91 300.20 C 1583.18 296.41 1583.65 292.63 1584.33 288.90 C 1584.63 287.68 1585.09 286.41 1584.78 285.14 Z" />
<path fill="#000000" opacity="1.00" d=" M 1749.44 285.26 C 1754.63 284.98 1759.84 285.18 1765.06 285.13 L 1764.94 286.17 C 1764.77 287.17 1765.04 288.08 1765.75 288.89 C 1766.34 290.92 1766.83 293.00 1767.10 295.12 C 1767.28 295.61 1767.64 296.60 1767.82 297.09 C 1767.84 297.62 1767.89 298.67 1767.91 299.20 C 1767.82 300.22 1768.12 301.14 1768.80 301.96 C 1768.90 302.48 1769.09 303.52 1769.19 304.04 C 1769.36 304.53 1769.72 305.52 1769.89 306.01 C 1769.96 306.54 1770.09 307.60 1770.16 308.13 C 1770.32 308.63 1770.64 309.64 1770.81 310.14 C 1770.83 310.65 1770.88 311.66 1770.90 312.17 C 1770.81 313.19 1771.10 314.10 1771.78 314.91 C 1771.88 315.44 1772.09 316.50 1772.20 317.03 C 1772.37 317.52 1772.71 318.52 1772.88 319.01 C 1772.95 319.53 1773.08 320.55 1773.15 321.06 C 1773.29 321.56 1773.55 322.58 1773.69 323.09 C 1774.24 325.39 1774.79 327.72 1775.18 330.08 C 1775.34 330.57 1775.68 331.57 1775.85 332.07 C 1775.92 332.57 1776.06 333.57 1776.13 334.06 C 1776.26 334.57 1776.54 335.58 1776.67 336.09 C 1777.24 338.39 1777.79 340.73 1778.16 343.09 C 1778.34 343.58 1778.69 344.57 1778.87 345.07 C 1778.94 345.57 1779.07 346.58 1779.13 347.08 C 1779.29 347.58 1779.59 348.58 1779.74 349.09 C 1779.86 349.82 1780.10 351.30 1780.21 352.03 C 1780.38 352.53 1780.72 353.53 1780.89 354.02 C 1780.97 354.52 1781.13 355.52 1781.21 356.01 C 1781.36 356.52 1781.65 357.53 1781.79 358.04 C 1781.86 358.56 1782.01 359.60 1782.09 360.12 C 1782.25 360.62 1782.58 361.61 1782.75 362.11 C 1782.87 362.83 1783.11 364.29 1783.23 365.01 C 1783.39 365.52 1783.71 366.52 1783.86 367.02 C 1783.95 367.52 1784.12 368.53 1784.20 369.04 C 1784.35 369.54 1784.66 370.54 1784.81 371.05 C 1784.88 371.57 1785.01 372.62 1785.08 373.14 C 1785.25 373.64 1785.59 374.62 1785.77 375.12 C 1785.88 375.84 1786.10 377.29 1786.21 378.02 C 1786.38 378.52 1786.72 379.51 1786.88 380.01 C 1786.96 380.51 1787.11 381.51 1787.18 382.01 C 1787.32 382.52 1787.59 383.54 1787.72 384.06 L 1788.33 384.80 C 1775.57 385.55 1762.75 384.89 1749.97 385.15 C 1748.68 384.87 1745.96 385.87 1745.87 383.90 C 1745.71 383.40 1745.40 382.40 1745.24 381.90 C 1744.64 380.26 1744.20 378.58 1743.91 376.88 C 1743.73 376.39 1743.38 375.40 1743.20 374.91 C 1742.61 373.27 1742.18 371.58 1741.91 369.89 C 1741.70 369.40 1741.28 368.44 1741.07 367.96 L 1740.96 366.71 C 1740.89 366.31 1740.76 365.53 1740.69 365.13 L 1739.94 365.08 C 1731.68 364.63 1723.40 364.96 1715.13 364.90 C 1712.30 369.08 1709.40 373.21 1706.54 377.36 C 1706.50 377.42 1706.42 377.53 1706.38 377.59 C 1704.64 380.06 1702.90 382.53 1701.25 385.06 C 1694.83 385.18 1688.42 385.12 1682.02 385.10 C 1682.38 384.50 1683.11 383.30 1683.48 382.71 C 1683.52 382.65 1683.60 382.52 1683.64 382.46 C 1684.10 381.77 1685.03 380.38 1685.49 379.69 C 1685.53 379.63 1685.61 379.51 1685.65 379.45 C 1689.31 374.21 1692.85 368.90 1696.44 363.60 C 1696.48 363.54 1696.56 363.43 1696.60 363.37 C 1697.91 361.47 1699.20 359.55 1700.49 357.63 C 1700.53 357.57 1700.61 357.45 1700.65 357.39 C 1701.11 356.72 1702.03 355.36 1702.49 354.68 C 1702.53 354.62 1702.61 354.51 1702.65 354.45 C 1703.12 353.75 1704.06 352.34 1704.53 351.64 C 1704.57 351.58 1704.65 351.47 1704.69 351.41 C 1708.31 346.20 1711.84 340.92 1715.40 335.65 C 1715.44 335.60 1715.52 335.48 1715.56 335.42 C 1716.87 333.52 1718.17 331.61 1719.46 329.68 C 1719.50 329.62 1719.58 329.50 1719.62 329.44 C 1720.09 328.74 1721.04 327.35 1721.51 326.65 C 1721.55 326.60 1721.63 326.48 1721.66 326.42 C 1722.12 325.73 1723.05 324.36 1723.51 323.67 C 1723.55 323.62 1723.62 323.50 1723.66 323.44 C 1728.64 316.22 1733.55 308.95 1738.45 301.67 C 1738.49 301.61 1738.57 301.49 1738.61 301.43 C 1739.08 300.74 1740.02 299.36 1740.49 298.67 C 1740.53 298.62 1740.61 298.50 1740.65 298.44 C 1741.11 297.75 1742.03 296.38 1742.50 295.69 C 1742.54 295.63 1742.62 295.51 1742.66 295.45 C 1744.97 292.09 1747.34 288.77 1749.44 285.26 M 1724.53 351.38 C 1724.50 351.44 1724.42 351.55 1724.38 351.61 C 1723.38 352.95 1722.52 354.36 1721.79 355.84 C 1727.50 355.89 1733.23 355.91 1738.95 355.82 C 1737.75 349.49 1736.06 343.26 1734.83 336.94 C 1730.79 341.28 1728.08 346.65 1724.53 351.38 Z" />
</g>
</svg>
